/* XPM */
static char *_402b6de7ffe44d5cc434a031df76344fROJlyvq4EQjTudc[] = {
/* columns rows colors chars-per-pixel */
"64 64 10 1 ",
"  c #50BED6",
". c #5FCDE4",
"X c #60CDE4",
"o c #64CFE5",
"O c #67D0E6",
"+ c #68D0E6",
"@ c #68D7EF",
"# c #78E3FA",
"$ c #ACF0FF",
"% c white",
/* pixels */
"$$%..........      @@@@@#######$$$$%..........       @@@######$$",
"$$$%........       @@@@@#######$$$$%..........      @@@@######$$",
"$$$%........      @@@@@@#######$$$$%..........      @@@@######$$",
"$$$$%......       @@@@@#######$$$$$%..........      @@@@#######$",
"$$$$%......      @@@@@@######$$$$$$%XXXX.....       @@@@@######$",
"$$$$$%.....      @@@@@@#####$$$$$$%XXXXXXX...       @@@@@@######",
"$$$$$%.....     @@@@@@@#####$$$$$%XXXXXXXXXX.       @@@@@@######",
"$$$$$%....      @@@@@@#####$$$$$$%XXXXXXXXXXX       @@@@@@######",
"$$$$$%....      @@@@@@#####$$$$$%XXXXXXXXXXXX       @@@@@@######",
"$$$$$%....     @@@@@@@#####$$$$$%XXXXXXXXXXXX       @@@@@@######",
"$$$$$%...      @@@@@@######$$$$$%XXXXXXXXXXXX       @@@@@@######",
"$$$$%....      @@@@@@######$$$$$%XXXXXXXXXXXX       @@@@@@######",
"$$$$%....      @@@@@@######$$$$%%XXXXXXXXXXXX       @@@@@@######",
"$$$$%....      @@@@@@######$$$$%%oXoXXXXXXXX        @@@@@@######",
"$$$$%...       @@@@@######$$$$$%oooooooXXXXX        @@@@@#######",
"$$$$%...       @@@@@######$$$$$%oooXXXoooXXX        @@@@@#######",
"$$$$%...      @@@@@@######$$$$$%oooXXXooXXXX        @@@@@######$",
"$$$%%...      @@@@@@#####$$$$$%oooooooXXXXXX        @@@@@######$",
"$$$%%..       @@@@@@#####$$$$$%oooooooooooX         @@@@#######$",
"$$$%%..       @@@@@@#####$$$$$%oooooooooooo         @@@@#######$",
"$$$%..X       @@@@@@#####$$$$$%oooooooooooo        @@@@#######$$",
"$$$%..X       @@@@@@######$$$$%oooooooooooo        @@@@#######$$",
"$$$%.XX       @@@@@@######$$$$%ooooooooooo        @@@@@#######$$",
"$$%..XX        @@@@@######$$$$$%oooooooooo        @@@@#######$$$",
"$$%..XX        @@@@@######$$$$$%OOoooooooo       @@@@@#######$$$",
"$$%.XXX        @@@@@@#####$$$$$$%OOOooooo        @@@@@######$$$$",
"$%..XXX        @@@@@@######$$$$$%OOOOOooo       @@@@@#######$$$$",
"$%..XXX        @@@@@@######$$$$$%OOOOOoo        @@@@@######$$$$$",
"%...XXX         @@@@@#######$$$$%OOOOOOo       @@@@@#######$$$$$",
"%...XXX         @@@@@#######$$$$$%OOOOOo       @@@@@######$$$$$$",
"....XXX         @@@@@@######$$$$$%+OOOO        @@@@@######$$$$$%",
"....XXX         @@@@@@######$$$$$%+OOOO       @@@@@@######$$$$%.",
"....XXX          @@@@@#######$$$$$%OOOO       @@@@@@######$$$$%.",
"....XXX          @@@@@#######$$$$$%OOOO       @@@@@@######$$$$%.",
"....XXX          @@@@@@######$$$$$%OOOO       @@@@@@######$$$$$%",
"....XXX          @@@@@@#######$$$$%OOOO       @@@@@@#####$$$$$$%",
"....XXX          @@@@@@#######$$$$$%OOo       @@@@@@#####$$$$$$%",
"....XXXX         @@@@@@#######$$$$$%OOo       @@@@@@#####$$$$$$%",
"....XXXX          @@@@@#######$$$$$%ooo       @@@@@@@#####$$$$$%",
"%....XXX          @@@@@#######$$$$$%ooo       @@@@@@@#####$$$$$$",
"%....XXX          @@@@@########$$$$%ooo       @@@@@@@#####$$$$$$",
"%....XXXX         @@@@@@#######$$$$%ooo       @@@@@@@######$$$$$",
"%.....XXX         @@@@@@#######$$$$%ooo        @@@@@@######$$$$$",
"%.....XXXX        @@@@@@#######$$$$%%oo        @@@@@@@#####$$$$$",
"$%.....XXX        @@@@@@@######$$$$%%oo        @@@@@@@######$$$$",
"$%.....XXXX       @@@@@@@######$$$$%%ooo        @@@@@@######$$$$",
"$$%.....XXX       @@@@@@@#######$$$%%oXX        @@@@@@#######$$$",
"$$%.....XXXX      @@@@@@@#######$$$%%XXXX        @@@@@@######$$$",
"$$$%.....XXX      @@@@@@@#######$$$$%%XXX         @@@@@######$$$",
"$$$$%.....XXX     @@@@@@@@######$$$$%%XXXX        @@@@@#######$$",
"$$$$$%.....XX      @@@@@@@######$$$$$%XXXX         @@@@@######$$",
"$$$$$%.....XXX     @@@@@@@######$$$$$%XXXXX        @@@@@@#####$$",
"$$$$$%......XX      @@@@@@######$$$$$$%XXXX         @@@@@@#####$",
"$$$$$%........X     @@@@@@######$$$$$$%XXXX         @@@@@@######",
"$$$$$%.........      @@@@@#######$$$$$%XXXXX        @@@@@@######",
"$$$$%%.........      @@@@########$$$$$%XXXXX        @@@@@@@#####",
"#$$$%%........       @@@@########$$$$$%XXXXX        @@@@@@######",
"$$$$$%........        @@@########$$$$$%XXXXX        @@@@@@######",
"$$$$$%........        @@@########$$$$%XXXX..        @@@@@#######",
"$$$$$%.......         @@@########$$$$%X.....        @@@@@#######",
"$$$$$%.......         @@@########$$$$%.......       @@@@@#######",
"$$$$%........        @@@@@######$$$$$%.......       @@@@@#######",
"$$$%.........       @@@@@#######$$$$%%.......        @@@@######$",
"$$%..........       @@@@#######$$$$$%%........       @@@@#####$$"
};
