/* XPM */
static char *f601570cb970480bf2428efb8220089aS7tLrk0WskRvuDAe[] = {
/* columns rows colors chars-per-pixel */
"64 64 8 1 ",
"  c #50BED6",
". c #5FCDE4",
"X c #60CDE4",
"o c #64CFE5",
"O c #68D7EF",
"+ c #78E3FA",
"@ c #ACF0FF",
"# c white",
/* pixels */
"OOOO++++@@@@##...................     OOOO++++@@@@##........    ",
"OOOO++++@@@@##...................     OOOO++++@@@@##........    ",
"OOOO++++@@@@#...................     OOOOOO+++@@@@##........    ",
"OOOO++++@@@#....................     OOOOOO+++@@@@##........    ",
"OOOO+++@@@@#.............XXXXXXX     OOOOOO+++@@@@#.........    ",
"OOOO+++@@@@#..........XXXXXXXXXX     OOOOOO+++@@@@#.........    ",
"OOOO+++@@@@#........XXXXXXXXXXXX     OOOOO++++@@@@#........     ",
"OOOO+++@@@@#......XXXXXXXXXXXXX      OOOOO++++@@@@#........    O",
"OOOO+++@@@#.....XXXXXXXXXXXXXXX      OOOOO++++@@@@#........    O",
"OOOO+++@@@#....XXXXXXXXXXXXXXXX     OOOOOO++++@@@@#.......     O",
"OOOO+++@@@#...XXXXXXXXXXXXXXXX      OOOOOO++++@@@#........     O",
"OOOO+++@@@#.XXXXXXXXXXXXXXXXXX      OOOOO++++@@@@#XX......     O",
"OOOO+++@@@@#XXXXXXXXXXXXXXXXX      OOOOOO++++@@@@#XXX.....     O",
"OOOO+++@@@@#XXXXXXXXXXXXXXXXX      OOOOOO++++@@@#XXXX....     OO",
"OOO++++@@@@#XXXXXXXXXXXXXoXXo      OOOOO++++@@@@#XXXXX...     OO",
"OOO++++@@@@#XXXXXXXXXXXoooXX      OOOOOO++++@@@@#XXXXXX..     OO",
"OOO++++@@@#XXXXXXXXXXXXoooX       OOOOO++++@@@@#XXXXXXXX.     OO",
"OOO++++@@@#XXXXXXXXXXXoooo       OOOOOO++++@@@@#XXXXXXXX     OOO",
"OOO++++@@@#XXXXXXXXoXXXXo        OOOOOO+++@@@@#XXXXXXXXX     OOO",
"OO+++++@@@@#XXXXXXooXXoo        OOOOOO++++@@@@#XXXXXXXXX     OOO",
"OO+++++@@@@#XXXXXoXXXoo         OOOOOO+++@@@@#XXXXXXXXXX     OOO",
"OO+++++@@@@#XXXXooooooo        OOOOOO++++@@@@#XXXXXXXXXX     OOO",
"O+++++@@@@@#XXXXooXooo        OOOOOOO+++@@@@#XXXXXXXXXXX    OOOO",
"O+++++@@@@#XXXXoooXooo        OOOOOO++++@@@@#XXXoXXXXXXX    OOOO",
"O+++++@@@@#XXXXoXXoooo       OOOOOOO+++@@@@#ooXXoXXXXXX     OOOO",
"O++++@@@@#XXXXooXXoooo      OOOOOOO++++@@@@#ooXXooXXXXX     OOOO",
"+++++@@@@#XXXXXoXoooo       OOOOOOO+++@@@@#ooooXooXXXXX     OOOO",
"+++++@@@@#XXXXXoXoooo      OOOOOOO++++@@@@#ooooXooXXXXX     OOOO",
"+++++@@@#XXXXoXXXoooo      OOOOOOO++++@@@#oooooXooXXXX      OOOO",
"+++++@@@#XXXXXXXooooo     OOOOOOO++++@@@@#ooooooooXXXX      OOOO",
"++++@@@@#XXXXoXXooooo     OOOOOO+++++@@@@#ooooooooXXXX      OOOO",
"++++@@@@#XXXXoXXooooo     OOOOOO+++++@@@#ooooooooooXXX      OOOO",
"++++@@@@#XXXXXXoooooo    OOOOOO++++++@@@#ooooooooooXXX      OOOO",
"++++@@@@#XXXXXooooooo    OOOOOO+++++@@@@#oooooooXXoXXX      OOOO",
"++++@@@@#XXXXoooooooo    OOOOOO+++++@@@@#oooooooXXoXXX      OOOO",
"++++@@@#XXXXXoooooooo    OOOOOO+++++@@@#oooooooXXXXXXX      OOOO",
"++++@@@#XXXXXXXXXoooo    OOOOO++++++@@@#oooooooXooXXXX      OOOO",
"++++@@@#XXXXXXXXXoooo    OOOOO++++++@@@#oooooooXooXXXX      OOOO",
"++++@@@#XXXXXXXXXXooo    OOOOO++++++@@@#ooooooXXooXXXX      OOOO",
"O+++@@@@#XXXXXXXXXooo    OOOOO++++++@@@#ooooooXXXXXXXXX     OOOO",
"O+++@@@@@#XXXXXXXXXooo   OOOOO+++++@@@@#oooooXXXoXXXXXX     OOOO",
"O++++@@@@#XXXXXXooXooo   OOOOOO++++@@@@#oooooXXXXXXXXXX     OOOO",
"OO+++@@@@#XXXXXXoooooo    OOOOO+++++@@@#oooooXXXXXXXXXX     OOOO",
"OO+++@@@@@#XXXXXXoooXo    OOOOOO++++@@@@#ooXoXXXXXXXXXXX    OOOO",
"OOO+++@@@@#XXXXXXXooXXo    OOOOO+++++@@@@#ooooXXXXXXXXXX     OOO",
"OOO+++@@@@@#XXXXXXXoXXX     OOOOO++++@@@@@#ooXXXXXXXXXXX     OOO",
"OOOO++@@@@@#XXXXXXXXXoXX     OOOO+++++@@@@@#XXXXXXXXXXXX.     OO",
"OOOO+++@@@@#XXXXXXXXXoXXX     OOOO++++@@@@@##XXXXXXXXXXX.      O",
"OOOO+++@@@@@#XXXXXXXXXXooo     OOOO++++@@@@##XXXXXXXXXX...     O",
"OOOOO+++@@@@#XXXXXXXXXXXXoo     OOO+++++@@@@##XXXXXXXX....      ",
"OOOOO+++@@@@#XXXXXXXXXXXXXXX     OOO++++@@@@@#XXXXXXX.....      ",
"OOOOO+++@@@@#XXXXXXXXXXXXXXXX     OOO+++@@@@@@#XXXXXX......     ",
" OOOOO+++@@@#XXXXXXXXXXXXXXXXX    OOO++++@@@@@@#XXXX.......     ",
" OOOOO+++@@@@#XXXXXXXXXXXXXXXXX    OO+++++@@@@###X..........    ",
" OOOOO+++@@@@#.XXXXXXXXXXXXXXXXX   OOO++++@@@@@##...........    ",
" OOOOO++++@@@@#.XXXXXXXXXXXXXXXX    OO+++++@@@@##...........    ",
"  OOOO++++@@@@#...XXXXXXXXXXXXXXX   OOO+++++@@@@#...........    ",
"  OOOO++++@@@@#.....XXXXXXXXXXXXX   OOOO++++@@@@##...........   ",
" OOOOOO+++@@@#........XXXXXXXXXXX    OOO+++++@@@@#...........   ",
" OOOOOO+++@@@#...........XXXXXXXXX   OOOO++++@@@@##..........   ",
" OOOOO+++@@@@#....................   OOOOO++++@@@##..........   ",
" OOOOO+++@@@@#...................    OOOOO++++@@@@#..........   ",
" OOOOO+++@@@@#...................     OOOO++++@@@@#..........   ",
"OOOOO+++@@@@@#...................     OOOO++++@@@@##.........   "
};
