/* XPM */
static char *_0d3811bb4f24a97c2e1d753a82f45bdpLz4iRzhO8NCkOpX[] = {
/* columns rows colors chars-per-pixel */
"64 64 9 1 ",
"  c #362623",
". c #462B27",
"X c #51302B",
"o c #59352F",
"O c #EFCB83",
"+ c #F2D59D",
"@ c #F4DBA9",
"# c #BECDCC",
"$ c #D4E4E3",
/* pixels */
"+@@+O@+@@+@@+O@+@+@+++@+@+++@+++@++@@O@++@@@+O@@++++++@++@++++@+",
"++@++@+++@++@@+@@@@@@+O++@++@@@+++@++@O+++@+@++@+++++@+@@@+@+@+@",
"+@+@@+@@+@@@@@@++@+@+++O@O@+O@O+@++@+@+++@@@@+++@++@@@+@++@+++++",
"++++@+@+O++@+@@@O+@+@@@+@++O++@++@@@O@@+++@++@@@O+@++++@@+++O@+@",
"@@+O@+@+@@@O@@@@@O+@@@@+O@+@@@++@@@@+@@O++++@@@O+++@@+++@@@@++@@",
"@++@@++@O+@@@O@@+++@O@OO++++++++@+++@++@+@++++O@++O+@@O+@+@+O+@@",
"O@@@+O@+++++++@@+@+++@@@+++++@+@+++O@++++O++@+@++++@++@@+@+++@+@",
"+@+@@@OO@@@@@@++@@+@@@O+OO++++@+++++O@++@+OO+++++++++@+@+@+++O@@",
"@+++@+OO@OO@++@@@@@@O++@O@@@++O+@++@@+@++@@@++++++@+@+++++@@@@@@",
"@+@OO@@O@OO+@@@@@@@@@@@@@+++++@+@@+@+@++@+@+@+@+@@@++@@@@@+@+@@@",
"@@@@@@@+@@@@O@@@@+O@OO@@@++++@+OOO+++@+@@O++@@+O@@O+@@+@@@+@@+@@",
"@@@@@+@@@@@O@@@@O@@@@@@+O+@@O@+++@@@+@++@@+++@@@@@+@+@@+@O+@+@@+",
"O@@@@@O@@+@O@+@++@@@O+@+@+O@O@@O@O+@@+@@++O+@+@++@@@@++@@+@++@++",
"+@@@O@@+@@++@++@@@@@@@@@++++++@@@@@@++@@@@@+@+++O+++O+O+++@+@@@+",
"@@+@++@+@@@++O+@++++O@++@+O++@O+@@@++O@O+O+@++OO+O++@OO+@@@@+@++",
"@@@+@@@OO+@@++++@@+@@@@+@+@@O+@O@@O++@@O+@+O+@+@++@@@@+++O+++O@+",
"+@@+@+O+@O++O++++@O+@O+@O@@+O@@@++@++ooo++++O@@+++@+O++++@@+@++@",
"@+@+@++++@+OOO@@@@O@++O@@@@@O+@@Oooooo$$oooooooO+@++O@@@O+@+@+@@",
"@+O@+@++@OO+@@@@+@++@OO@@ooooooooo$$$$$$$$$$$ooo@+@@@++@+@+++@+@",
"+@+@O@+O+@@+@@@@+@+@@@@ooo$$$$$$$$$$$$$$$$$$$$$oo+@+@@+++O@@+@@O",
"@@+@++@+++@++O+++O+oooo$$$$$$$$$$$$$$$#######$$$oo@O+@@++@++@O@@",
"OO+@@@+@O+@@+++@ooo$$$$$$$$$$$$$$$$##########$$$$oo++++@@@@+@@+@",
"+@@+@@+@@+@@O@ooo$$$$$$$$$$$$$$###############$$$$oo+++++@+@++@@",
"O++++++++@O@@ooo$$$$$$$$$#####################$$$$oo@@O+@++@+@+@",
"OO@O+@++@+++oo$$$$$$$$$#######################$$$$oo++@+O++@++@+",
"++@O++@++@Ooo$$$$$###########################$$$$$oo+++O@++@+@@@",
"++@@@@+O@+oo$$$$############################$$$$$$oo+@@+O++@+@@+",
"O+@@+@++@+o$$$$############################$$$$$$ooX@+@++@+@++++",
"@O@++++++o$$$$############################$$$$$$ooXX+++@@@@@@++@",
"++O++++@@o$$$$##########################$$$$$$oooXXX@++++O++@O@@",
"++++++@+@o$$$$########################$$$$$$$oooXXXX+++@++@+@+++",
"+@+@O+@++Xo$$$$####################$$$$$$$$$oooXXXXX+OO+@+++@+@+",
"@+@OO+++OXoo$$$##################$$$$$$$$$oooXXXXXXX@@O+++@@+@@+",
"+@+++OO++XXoo$$$$$$$#######$$$$$$$$$$$$ooooXXXXXXXX@++@O+++@+O++",
"+++O@++++XXXoo$$$$$$$$$$$$$$$$$$$$$oooooXXXXXXXX...+O+O++@@++@++",
"@+++++++@.XXXo$$$$$$$$$$$$$$$$oooooooXXXXXXXXX.....+O@++O@++O@++",
"@+++++++@..XXooooooo$$$$$oooooooXXXXXXXXXXXX.......+++++++++++++",
"+++@++@O@@.XXXXXXXoooooooooXXXXXXXXXXXXXXX.........@++@@@@@O++++",
"++O++@++@@..XXXXXXXXXXXXXXXXXXXXXXXXXXX...........+@@O+@+@+O@+++",
"+@++@@+@++....XXXXXXXXXXXXXXXXXXXXXXX..........   @++@+@@+++++++",
"+@+@++@+O++......XXXXXXXXXXXXXXXX............    @++@++@++++++@@",
"++++++++++++.......XXXXXXXX...............      ++@++@O+@+@@@+@+",
"@+++++@++@++@...........................       @@+@++@+@+@@@@+@+",
"++++@@+O@+++O+ .....................          @@@@++@@+@+@+@@O@O",
"+++++@@++@@+++O      ..                      ++@+@@@+@++@+++++++",
"++@++@+++@@@+O@+@                           +++O+@@@@+@+@++++@OO",
"++++@@@@O++@@O+O+O@@@                    @+@++@++@@O@@@O@+++++++",
"@++++++@+++++@@@++@+@@                @+O@@++@++@@+@@@+@@O+@@+@@",
"++@@@+@+O@+++O++O@++++++++@+++O@@+O+@+@+@+++++@+@@@++@@+@+@++++@",
"@++++@++@++++++@+@@+@O@+++@++@+O@@+++O+++@+@+@++++++O+++@+++@@@+",
"+++@+@O@++++++@@+@@++@+@@@++@@++++@@++++++@++@@@@@+@@++++@O+++@+",
"+@@++++@+++@+++@+@+@@++++@+++@@@++++@@+++@+@++++O@@O++@+O++@@@++",
"+++++@+@++++++++@+++@+++@@+@@++@@++@@@@++++@+@+++@+@@O++++++++++",
"@++OO+O+@+@@++++O@O@@@@++++++@+@++@@@@+@@+@++@+@+@@++@++++++++@+",
"++++++@++++@+++++@++++@@++@@@+@++++@@@+@+O+@@@+@@+@+++++@@+++++@",
"++++O@++@O++++++@+@++++@+@+++@@+++@+@@+@+@+++++O@@+++++@+++++++@",
"@++++O+@@++++@@+O++@++++++O@@@++++@++@+@O++++@+@++++@+@++@+++@@+",
"+@++@++@+@+++++@++++@+@+O+@+@@+@@+@++O+@@@++@++@+@++++++@+@@+@@@",
"++@+@@+@+@@@O++++@++++++@@+O@OO+@@+@+++@+@@+@+++@+@@+@+@+@@+@++@",
"++@@++@++@@O@+@+O@++O@@@@+@+++++@+O+@++++@++++O@+OO+@@@O@+@@+@++",
"+++@@+++@++++++O@+@@@+@++@++++O+@+@@+@O++OO@+@@+++@+O++++++@O+++",
"+@+@O@++@+@++@@@+@++@@+O@O@O+@+@@@@@+@+@+++++@++@+@O+@@@+@+++++@",
"+@+@++@@@++O@O+@@@+@O@++@+@+++@+++@@O++@+@++@@+@+@++@++@+++@++O+",
"+@++@@@+@@+@+@O+@@+@+O+O++@++++@@++@++O@@+@++@++@@@++@@@+++@++++"
};
