/* XPM */
static char *d974ec70dde047c2c1fe18ed98cf1e7fuJ24xL1UI6xOY3co[] = {
/* columns rows colors chars-per-pixel */
"64 64 8 1 ",
"  c #EFCB83",
". c #F2D59D",
"X c #F4DBA9",
"o c #EFD3FA",
"O c #F8E6FF",
"+ c #F9E9FF",
"@ c #F8EEFC",
"# c white",
/* pixels */
".XX. X.XX.XX. X.X.X...X.X...X...X..XX X..XXX. XX......X..X....X.",
"..X..X...X..XX.XXXXXX. ..X..XXX...X..X ...X.X..X.....X.XXX.X.X.X",
".X.XX.XX.XXXXXX..X.X... X X. X .X..X.X...XXXX...X..XXX.X..X.....",
"....X.X. ..X.XXX .X.XXX.X.. ..X..XXX XX...X..XXX .X....XX... X.X",
"XX. X.X.XXX XXXXX .XXXX. X.XXX..XXXX.XX ....XXX ...XX...XXXX..XX",
"X..XX..X .XXX XX...X X  ........X...X..X.X.... X.. .XX .X.X. .XX",
" XXX. X.......XX.X...XXX.....X.X... X.... ..X.X....X..XX.X...X.X",
".X.XXX  XXXXXX..XX.XXX .  ....X..... X..X.  .........X.X.X... XX",
"X...X.  X  X..XXXXXX ..X XXX.. .X..XX.X..XXX......X.X.....XXXXXX",
"X.X  XX X  .XXXXXXXXXXXXX.....X.XX.X.X..X.X.X.X.XXX..XXXXX.X.XXX",
"XXXXXXX.XXXX XXXX. X  XXX....X.   ...X.XX ..XX. XX .XX.XXX.XX.XX",
"XXXXX.XXXXX XXXX XXXXXX. .XX X...XXX.X..XX...XXXXX.X.XX.X .X.XX.",
" XXXXX XX.X X.X..XXX .X.X. X XX X .XX.XX.. .X.X..XXXX..XX.X..X..",
".XXX XX.XX..X..XXXXXXXXX......XXXXXX..XXXXX.X... ... . ...X.XXX.",
"XX.X..X.XXX.. .X.... X..X. ..X .XXX.. X . .X..  . ..X  .XXXX.X..",
"XXX.XXX  .XX....XX.XXXX.X.XX oooooo..XX .X. .X.X..XXXX... ... X.",
".XX.X. .X .. ....X .X .X XoooOOOOOOooo...... XX...X. ....XX.X..X",
"X.X.X....X.   XXXX X.. XooO+@@@@@OOOOOooXXXX. X .X.. XXX .X.X.XX",
"X. X.X..X  .XXXX.X..X  oO++@@@@@@@+OOOOOo..X.X.XX.XXX..X.X...X.X",
".X.X X. .XX.XXXX.X.XXooO+##@@@@@@@@+OOOOOoo. X....X.XX... XX.XX ",
"XX.X..X...X.. ... . oOO+####@@@@@@@@OOOOOOOoX.....X .XX..X..X XX",
"  .XXX.X .XX...XXXX oO+######@@@@@@@+OOOOOOo. X.XX.....XXXX.XX.X",
".XX.XX.XX.XX X..X..oO+@######@@@@@@@+OOOOOOOo .X.X.X.....X.X..XX",
" ........X XXXX.X.oOO@@@####@@@@@@@++OOOOOOOOo.XX. .XX .X..X.X.X",
"  X .X..X...X.X .XoO@@@@@##@@@@@@@+++OOOOOOOOo..X.XX..X. ..X..X.",
"..X ..X..X .X..X.oOO@@@@@@@@@@@@@+++OOOOOOOOOOo.X...... X..X.XXX",
"..XXXX. X... ... oOO@@@@@@@@@@++++++OOOOOOOOOOo.X....XX. ..X.XX.",
" .XX.X..X.XXX..X oOO@@@@@@@@@++++++OOOOOOOOOOOoX ...X.X..X.X....",
"X X......X..X .XoOO++@@@@@@@+++++OOOOOOOOOOOOOOoX.X....XXXXXX..X",
".. ....XX.....X.oOO+++@@@@@+++++OOOOOOOOOOOOOOOo X..X.... ..X XX",
"......X.XX.XX...oOO++++@@@++++++OOOOOOOOOOOOOOOo .X....X..X.X...",
".X.X .X...X. .. oOO+++++++++++++OOOOOOOOOOOOOOOoX.XX.  .X...X.X.",
"X.X  ...  ..X..XoOO++++++++++++++OOOOOOOOOOOOOOo..XXXX ...XX.XX.",
".X...  ..XX XX .oOOO+++++++++++++++OOOOOOOOOOOOoX..X..X ...X. ..",
"... X....X.XX.. .oOO++++++++++++++++OOOOOOOOOOo.X... . ..XX..X..",
"X.......XXXXX..XXoOO++++++++++++++++OOOOOOOOOOo.XX.. X.. X.. X..",
"X.......X.X...X. oOOO++++++++++++++++OOOOOOOOOo..XX.............",
"...X..X XX XXX. .XoOO++++++++++++++++OOOOOOOOo..   X..XXXXX ....",
".. ..X..XXX. .XX XoOOO+++++++++++++++OOOOOOOOoXX.X.XX .X.X. X...",
".X..XX.X...X... .XXoOOO++++++++++++++OOOOOOOo..XX X..X.XX.......",
".X.X..X. ..X.....X.XoOOO++++++++++++OOOOOOOo.XX..X..X..X......XX",
"............X....X.XoOOOO+++++++++++OOOOOOOoX .X..X..X .X.XXX.X.",
"X.....X..X..X..X....XooOOO+++++++++OOOOOOoo....XX.X..X.X.XXXX.X.",
"....XX. X... . XX..XX XoOOOO+++++OOOOOOOo.....XXXX..XX.X.X.XX X ",
".....XX..XX... XX.XX....ooOOOOOOOOOOOOoo.XXX...X.XXX.X..X.......",
"..X..X...XXX. X.XXX..X  XXoooOOOOOOooo....X.... .XXXX.X.X....X  ",
"....XXXX ..XX . . XXXX...X...oooooo XX.XXX.X..X..XX XXX X.......",
"X......X.....XXX..X.XX..XXX.XX XXX. ..X. XX..X..XX.XXX.XX .XX.XX",
"..XXX.X. X... .. X........X... XX. .X.X.X.....X.XXX..XX.X.X....X",
"X....X..X......X.XX.X X...X..X. XX... ...X.X.X...... ...X...XXX.",
"...X.X X......XX.XX..X.XXX..XX....XX......X..XXXXX.XX....X ...X.",
".XX....X...X...X.X.XX....X...XXX....XX...X.X.... XX ..X. ..XXX..",
".....X.X........X...X...XX.XX..XX..XXXX....X.X...X.XX ..........",
"X..  . .X.XX.... X XXXX......X.X..XXXX.XX.X..X.X.XX..X........X.",
"......X....X.....X....XX..XXX.X....XXX.X. .XXX.XX.X.....XX.....X",
".... X..X ......X.X....X.X...XX...X.XX.X.X..... XX.....X.......X",
"X.... .XX....XX. ..X...... XXX....X..X.X ....X.X....X.X..X...XX.",
".X..X..X.X.....X....X.X. .X.XX.XX.X.. .XXX..X..X.X......X.XX.XXX",
"..X.XX.X.XXX ....X......XX. X  .XX.X...X.XX.X...X.XX.X.X.XX.X..X",
"..XX..X..XX X.X. X.. XXXX.X.....X. .X....X.... X.  .XXX X.XX.X..",
"...XX...X...... X.XXX.X..X.... .X.XX.X ..  X.XX...X. ......X ...",
".X.X X..X.X..XXX.X..XX. X X .X.XXXXX.X.X.....X..X.X .XXX.X.....X",
".X.X..XXX.. X .XXX.X X..X.X...X...XX ..X.X..XX.X.X..X..X...X.. .",
".X..XXX.XX.X.X .XX.X. . ..X....XX..X.. XX.X..X..XXX..XXX...X...."
};
