/* XPM */
static char *_9b4640ab7cb4841a7bb181ccd268538GooNgH2cdI2OrfCh[] = {
/* columns rows colors chars-per-pixel */
"64 64 9 1 ",
"  c #362623",
". c #462B27",
"X c #51302B",
"o c #59352F",
"O c #EFCB83",
"+ c #F2D59D",
"@ c #F4DBA9",
"# c #BECDCC",
"$ c #D4E4E3",
/* pixels */
"+@@+O@+@@+@@+O@+@+@+++@+@+++@+++@++@@O@++@@@+O@@++++++@++@++++@+",
"++@++@+++@++@@+@@@@@@+O++@++@@@+++@++@O+++@+@++@+++++@+@@@+@+@+@",
"+@+@@+@@+@@@@@@++@+@+++O@O@+O@O+@++@+@+++@@@@+++@++@@@+@++@+++++",
"++++@+@+O++@+@@@O+@+@@@+@++O++@++@@@O@@+++@++@@@O+@++++@@+++O@+@",
"@@+O@+@+@@@O@@@@@O+@@@@+O@+@@@++@@@@+@@O++++@@@O+++@@+++@@@@++@@",
"@++@@++@O+@@@O@@+++@O@OO++++++++@+++@++@+@++++O@++O+@@O+@+@+O+@@",
"O@@@+O@+++++++@@+@+++@@@+++++@+@+++O@++++O++@+@++++@++@@+@+++@+@",
"+@+@@@OO@@@@@@++@@+@@@O+OO++++@+++++O@++@+OO+++++++++@+@+@+++O@@",
"@+++@+OO@OO@++@@@@@@O++@O@@@++O+@++@@+@++@@@++++++@+@+++++@@@@@@",
"@+@OO@@O@OO+@@@@@@@@@@@@@+++++@+@@+@+@++@+@+@+@+@@@++@@@@@+@+@@@",
"@@@@@@@+@@@@O@@@@+O@OO@@@++++@+OOO+++@+@@O++@@+O@@O+@@+@@@+@@+@@",
"@@@@@+@@@@@O@@@@O@@@@@@+O+@@O@+++@@@+@++@@+++@@@@@+@+@@+@O+@+@@+",
"O@@@@@O@@+@O@+@++@@@O+@+@+O@O@@O@O+@@+@@++O+@+@++@@@@++@@+@++@++",
"+@@@O@@+@@++@++@@@@@@@@@++++++@@@@@@++@@@@@+@+++O+++O+O+++@+@@@+",
"@@+@++@+@@@++O+@++++O@++@+O++@O+@@@++O@O+O+@++OO+O++@OO+@@@@+@++",
"@@@+@@@OO+@@++++@@+@@@@+@+@@O+@O@@O++@@O+@+O+@+@++@@@@+++O+++O@+",
"+@@+@+O+@O++O++++@O+@O+@O@@+O@@@++@+oooooooooo@+++@+O++++@@+@++@",
"@+@+@++++@+OOO@@@@O@++O@@@@@O+@@Ooooo$$$$$$$$ooo+@++O@@@O+@+@+@@",
"@+O@+@++@OO+@@@@+@++@OO@@@@@oooooo$$$$$$$$$$$$$oo+@@@++@+@+++@+@",
"+@+@O@+O+@@+@@@@+@+@@@@Oooooo$$$$$$$$$$$####$$$$oo@+@@+++O@@+@@O",
"@@+@++@+++@++O+++O+OO@ooo$$$$$$$$$$$$########$$$$ooO+@@++@++@O@@",
"OO+@@@+@O+@@+++@@@@oooo$$$$$$$$$$$$###########$$$$oo+++@@@@+@@+@",
"+@@+@@+@@+@@O@++oooo$$$$$$$$$$$$##############$$$$oo+++++@+@++@@",
"O++++++++@O@@@oooo$$$$$$$$$$$#################$$$$oo@@O+@++@+@+@",
"OO@O+@++@+++@ooo$$$$$$$$$#####################$$$$oo++@+O++@++@+",
"++@O++@++@O+ooo$$$$$$$$######################$$$$$oo+++O@++@+@@@",
"++@@@@+O@++ooo$$$$$$########################$$$$$ooX+@@+O++@+@@+",
"O+@@+@++@+ooo$$$$##########################$$$$$ooXX@+@++@+@++++",
"@O@++++++ooo$$$$##########################$$$$$ooXXX+++@@@@@@++@",
"++O++++@@oo$$$$#########################$$$$$$ooXXXX@++++O++@O@@",
"++++++@+@o$$$$########################$$$$$$$ooXXXXX+++@++@+@+++",
"+@+@O+@++o$$$$######################$$$$$$$oooXXXXXX+OO+@+++@+@+",
"@+@OO+++Oo$$$$####################$$$$$$$$ooXXXXXXX.@@O+++@@+@@+",
"+@+++OO++oo$$$$###############$$$$$$$$$ooooXXXXXX...++@O+++@+O++",
"+++O@++++Xoo$$$$###########$$$$$$$$$ooooXXXXXXX.....O+O++@@++@++",
"@+++++++@XXoo$$$$$$$$$$$$$$$$$$$oooooXXXXXXXXX......O@++O@++O@++",
"@+++++++@XXXoo$$$$$$$$$$$$$$$$ooooXXXXXXXXXX........++++++++++++",
"+++@++@O@.XXXoo$$$$$$$$$$$oooooXXXXXXXXXXX.........@++@@@@@O++++",
"++O++@++@@.XXXoooooooooooooXXXXXXXXXXXXX.........  @@O+@+@+O@+++",
"+@++@@+@++..XXXXXXXXXXXXXXXXXXXXXXXXXX.........    ++@+@@+++++++",
"+@+@++@+O++..XXXXXXXXXXXXXXXXXXXXXX..........     ++@++@++++++@@",
"+++++++++++....XXXXXXXXXXXXXXXXXX..........      +@++@O+@+@@@+@+",
"@+++++@++@++.......XXXXXXXXX.............       @+@++@+@+@@@@+@+",
"++++@@+O@+++O.........................         @@@++@@+@+@+@@O@O",
"+++++@@++@@+++....................            +@+@@@+@++@+++++++",
"++@++@+++@@@+O@  ........                    ++O+@@@@+@+@++++@OO",
"++++@@@@O++@@O+O                           @++@++@@O@@@O@+++++++",
"@++++++@+++++@@@++@                     O@@++@++@@+@@@+@@O+@@+@@",
"++@@@+@+O@+++O++O@++++++            @+@+@+++++@+@@@++@@+@+@++++@",
"@++++@++@++++++@+@@+@O@+++@++@+O@@+++O+++@+@+@++++++O+++@+++@@@+",
"+++@+@O@++++++@@+@@++@+@@@++@@++++@@++++++@++@@@@@+@@++++@O+++@+",
"+@@++++@+++@+++@+@+@@++++@+++@@@++++@@+++@+@++++O@@O++@+O++@@@++",
"+++++@+@++++++++@+++@+++@@+@@++@@++@@@@++++@+@+++@+@@O++++++++++",
"@++OO+O+@+@@++++O@O@@@@++++++@+@++@@@@+@@+@++@+@+@@++@++++++++@+",
"++++++@++++@+++++@++++@@++@@@+@++++@@@+@+O+@@@+@@+@+++++@@+++++@",
"++++O@++@O++++++@+@++++@+@+++@@+++@+@@+@+@+++++O@@+++++@+++++++@",
"@++++O+@@++++@@+O++@++++++O@@@++++@++@+@O++++@+@++++@+@++@+++@@+",
"+@++@++@+@+++++@++++@+@+O+@+@@+@@+@++O+@@@++@++@+@++++++@+@@+@@@",
"++@+@@+@+@@@O++++@++++++@@+O@OO+@@+@+++@+@@+@+++@+@@+@+@+@@+@++@",
"++@@++@++@@O@+@+O@++O@@@@+@+++++@+O+@++++@++++O@+OO+@@@O@+@@+@++",
"+++@@+++@++++++O@+@@@+@++@++++O+@+@@+@O++OO@+@@+++@+O++++++@O+++",
"+@+@O@++@+@++@@@+@++@@+O@O@O+@+@@@@@+@+@+++++@++@+@O+@@@+@+++++@",
"+@+@++@@@++O@O+@@@+@O@++@+@+++@+++@@O++@+@++@@+@+@++@++@+++@++O+",
"+@++@@@+@@+@+@O+@@+@+O+O++@++++@@++@++O@@+@++@++@@@++@@@+++@++++"
};
