/* XPM */
static char * collectible_2_xpm[] = {
"64 64 2 1",
" 	c None",
".	c #FF0000",
"                                                                ",
"                                                                ",
"                                                                ",
"                                                                ",
"                                                                ",
"                                                                ",
"                                                                ",
"                                                                ",
"                                                                ",
"                                                                ",
"                                                                ",
"                                                                ",
"                                                                ",
"                                                                ",
"                                                                ",
"                                                                ",
"                                                                ",
"                                                                ",
"                                                                ",
"                               ...                              ",
"                            .........                           ",
"                          .............                         ",
"                         .....     .....                        ",
"                         ...         ....                       ",
"                        ...           ...                       ",
"                       ...            ....                      ",
"                       ...             ...                      ",
"                       ...                                      ",
"                      ...                                       ",
"                      ...                                       ",
"                      ...                                       ",
"                      ...                                       ",
"                      ...                                       ",
"                      ...                                       ",
"                       ..                                       ",
"                       ...                                      ",
"                       ...             ...                      ",
"                       ....           ...                       ",
"                        ...           ...                       ",
"                         ...         ...                        ",
"                         ......   ......                        ",
"                           ...........                          ",
"                            .........                           ",
"                                                                ",
"                                                                ",
"                                                                ",
"                                                                ",
"                                                                ",
"                                                                ",
"                                                                ",
"                                                                ",
"                                                                ",
"                                                                ",
"                                                                ",
"                                                                ",
"                                                                ",
"                                                                ",
"                                                                ",
"                                                                ",
"                                                                ",
"                                                                ",
"                                                                ",
"                                                                ",
"                                                                "};
