/* XPM */
static char *_ad87af0f41d4ffdb0d6a4aba2f29146zDOomxDBB2jzZggq[] = {
/* columns rows colors chars-per-pixel */
"64 64 8 1 ",
"  c #EFCB83",
". c #F2D59D",
"X c #F4DBA9",
"o c #EFD3FA",
"O c #F8E6FF",
"+ c #F9E9FF",
"@ c #F8EEFC",
"# c white",
/* pixels */
".XX. X.XX.XX. X.X.X...X.X...X...X..XX X..XXX. XX......X..X....X.",
"..X..X...X..XX.XXXXXX. ..X..XXX...X..X ...X.X..X.....X.XXX.X.X.X",
".X.XX.XX.XXXXXX..X.X... X X. X .X..X.X...XXXX...X..XXX.X..X.....",
"....X.X. ..X.XXX .X.XXX.X.. ..X..XXX XX...X..XXX .X....XX... X.X",
"XX. X.X.XXX XXXXX .XXXX. X.XXX..XXXX.XX ....XXX ...XX...XXXX..XX",
"X..XX..X .XXX XX...X X  ........X...X..X.X.... X.. .XX .X.X. .XX",
" XXX. X.......XX.X...XXX.....X.X... X.... ..X.X....X..XX.X...X.X",
".X.XXX  XXXXXX..XX.XXX .  ....X..... X..X.  .........X.X.X... XX",
"X...X.  X  X..XXXXXX ..X XXX.. .X..XX.X..XXX......X.X.....XXXXXX",
"X.X  XX X  .XXXXXXXXXXXXX.....X.XX.X.X..X.X.X.X.XXX..XXXXX.X.XXX",
"XXXXXXX.XXXX XXXX. X  XXX....X.   ...X.XX ..XX. XX .XX.XXX.XX.XX",
"XXXXX.XXXXX XXXX XXXXXX. .XX X...XXX.X..XX...XXXXX.X.XX.X .X.XX.",
" XXXXX XX.X X.X..XXX .X.X. X XX X .XX.XX.. .X.X..XXXX..XX.X..X..",
".XXX XX.XX..X..XXXXXXXXX......XXXXXX..XXXXX.X... ... . ...X.XXX.",
"XX.X..X.XXX.. .X.... X..X. ..X .XXX.. X . .X..  . ..X  .XXXX.X..",
"XXX.XXX  .XX....XX.XXXX.X.XX .X XX ..XX .X. .X.X..XXXX... ... X.",
".XX.X. .X .. ....X .X .X XX. oooooo......... XX...X. ....XX.X..X",
"X.X.X....X.   XXXX X.. XXXoooOOOOOOoooXXXXXX. X .X.. XXX .X.X.XX",
"X. X.X..X  .XXXX.X..X  XooO+@@@@@OOOOOooX..X.X.XX.XXX..X.X...X.X",
".X.X X. .XX.XXXX.X.XXXXoO++@@@@@@@+OOOOOo... X....X.XX... XX.XX ",
"XX.X..X...X.. ... .  ooO+##@@@@@@@@+OOOOOooXX.....X .XX..X..X XX",
"  .XXX.X .XX...XXXX oOO+####@@@@@@@@OOOOOOOo. X.XX.....XXXX.XX.X",
".XX.XX.XX.XX X..X..XoO+######@@@@@@@+OOOOOOoX .X.X.X.....X.X..XX",
" ........X XXXX.X.XoO+@######@@@@@@@+OOOOOOOo..XX. .XX .X..X.X.X",
"  X .X..X...X.X .XoOO@@@####@@@@@@@++OOOOOOOOo..X.XX..X. ..X..X.",
"..X ..X..X .X..X..oO@@@@@##@@@@@@@+++OOOOOOOOo..X...... X..X.XXX",
"..XXXX. X... ... oOO@@@@@@@@@@@@@+++OOOOOOOOOOo.X....XX. ..X.XX.",
" .XX.X..X.XXX..X oOO@@@@@@@@@@++++++OOOOOOOOOOoX ...X.X..X.X....",
"X X......X..X .X.oOO@@@@@@@@@++++++OOOOOOOOOOOoXX.X....XXXXXX..X",
".. ....XX.....X.oOO++@@@@@@@+++++OOOOOOOOOOOOOOo X..X.... ..X XX",
"......X.XX.XX...oOO+++@@@@@+++++OOOOOOOOOOOOOOOo .X....X..X.X...",
".X.X .X...X. .. oOO++++@@@++++++OOOOOOOOOOOOOOOoX.XX.  .X...X.X.",
"X.X  ...  ..X..XoOO+++++++++++++OOOOOOOOOOOOOOOo..XXXX ...XX.XX.",
".X...  ..XX XX .oOO++++++++++++++OOOOOOOOOOOOOOoX..X..X ...X. ..",
"... X....X.XX.. oOOO+++++++++++++++OOOOOOOOOOOOoX... . ..XX..X..",
"X.......XXXXX..XXoOO++++++++++++++++OOOOOOOOOOo.XX.. X.. X.. X..",
"X.......X.X...X. oOO++++++++++++++++OOOOOOOOOOo..XX.............",
"...X..X XX XXX. .oOOO++++++++++++++++OOOOOOOOOo.   X..XXXXX ....",
".. ..X..XXX. .XX XoOO++++++++++++++++OOOOOOOOoXX.X.XX .X.X. X...",
".X..XX.X...X... .XoOOO+++++++++++++++OOOOOOOOo.XX X..X.XX.......",
".X.X..X. ..X.....X.oOOO++++++++++++++OOOOOOOoXX..X..X..X......XX",
"............X....X.XoOOO++++++++++++OOOOOOOoX .X..X..X .X.XXX.X.",
"X.....X..X..X..X....oOOOO+++++++++++OOOOOOOo...XX.X..X.X.XXXX.X.",
"....XX. X... . XX..XXooOOO+++++++++OOOOOOoo...XXXX..XX.X.X.XX X ",
".....XX..XX... XX.XX...oOOOO+++++OOOOOOOoXXX...X.XXX.X..X.......",
"..X..X...XXX. X.XXX..X  ooOOOOOOOOOOOOoo..X.... .XXXX.X.X....X  ",
"....XXXX ..XX . . XXXX...XoooOOOOOOooo.XXX.X..X..XX XXX X.......",
"X......X.....XXX..X.XX..XXX.Xoooooo ..X. XX..X..XX.XXX.XX .XX.XX",
"..XXX.X. X... .. X........X... XX. .X.X.X.....X.XXX..XX.X.X....X",
"X....X..X......X.XX.X X...X..X. XX... ...X.X.X...... ...X...XXX.",
"...X.X X......XX.XX..X.XXX..XX....XX......X..XXXXX.XX....X ...X.",
".XX....X...X...X.X.XX....X...XXX....XX...X.X.... XX ..X. ..XXX..",
".....X.X........X...X...XX.XX..XX..XXXX....X.X...X.XX ..........",
"X..  . .X.XX.... X XXXX......X.X..XXXX.XX.X..X.X.XX..X........X.",
"......X....X.....X....XX..XXX.X....XXX.X. .XXX.XX.X.....XX.....X",
".... X..X ......X.X....X.X...XX...X.XX.X.X..... XX.....X.......X",
"X.... .XX....XX. ..X...... XXX....X..X.X ....X.X....X.X..X...XX.",
".X..X..X.X.....X....X.X. .X.XX.XX.X.. .XXX..X..X.X......X.XX.XXX",
"..X.XX.X.XXX ....X......XX. X  .XX.X...X.XX.X...X.XX.X.X.XX.X..X",
"..XX..X..XX X.X. X.. XXXX.X.....X. .X....X.... X.  .XXX X.XX.X..",
"...XX...X...... X.XXX.X..X.... .X.XX.X ..  X.XX...X. ......X ...",
".X.X X..X.X..XXX.X..XX. X X .X.XXXXX.X.X.....X..X.X .XXX.X.....X",
".X.X..XXX.. X .XXX.X X..X.X...X...XX ..X.X..XX.X.X..X..X...X.. .",
".X..XXX.XX.X.X .XX.X. . ..X....XX..X.. XX.X..X..XXX..XXX...X...."
};
