/* XPM */
static char *_5773496071b4c2aeb9ed0111e6f6fefVWiMI9zVEhVWctoH[] = {
/* columns rows colors chars-per-pixel */
"64 64 3 1 ",
"  c #EFCB83",
". c #F2D59D",
"X c #F4DBA9",
/* pixels */
".XX. X.XX.XX. X.X.X...X.X...X...X..XX X..XXX. XX......X..X....X.",
"..X..X...X..XX.XXXXXX. ..X..XXX...X..X ...X.X..X.....X.XXX.X.X.X",
".X.XX.XX.XXXXXX..X.X... X X. X .X..X.X...XXXX...X..XXX.X..X.....",
"....X.X. ..X.XXX .X.XXX.X.. ..X..XXX XX...X..XXX .X....XX... X.X",
"XX. X.X.XXX XXXXX .XXXX. X.XXX..XXXX.XX ....XXX ...XX...XXXX..XX",
"X..XX..X .XXX XX...X X  ........X...X..X.X.... X.. .XX .X.X. .XX",
" XXX. X.......XX.X...XXX.....X.X... X.... ..X.X....X..XX.X...X.X",
".X.XXX  XXXXXX..XX.XXX .  ....X..... X..X.  .........X.X.X... XX",
"X...X.  X  X..XXXXXX ..X XXX.. .X..XX.X..XXX......X.X.....XXXXXX",
"X.X  XX X  .XXXXXXXXXXXXX.....X.XX.X.X..X.X.X.X.XXX..XXXXX.X.XXX",
"XXXXXXX.XXXX XXXX. X  XXX....X.   ...X.XX ..XX. XX .XX.XXX.XX.XX",
"XXXXX.XXXXX XXXX XXXXXX. .XX X...XXX.X..XX...XXXXX.X.XX.X .X.XX.",
" XXXXX XX.X X.X..XXX .X.X. X XX X .XX.XX.. .X.X..XXXX..XX.X..X..",
".XXX XX.XX..X..XXXXXXXXX......XXXXXX..XXXXX.X... ... . ...X.XXX.",
"XX.X..X.XXX.. .X.... X..X. ..X .XXX.. X . .X..  . ..X  .XXXX.X..",
"XXX.XXX  .XX....XX.XXXX.X.XX .X XX ..XX .X. .X.X..XXXX... ... X.",
".XX.X. .X .. ....X .X .X XX. XXX..X......... XX...X. ....XX.X..X",
"X.X.X....X.   XXXX X.. XXXXX .XX XX.XXXXXXXX. X .X.. XXX .X.X.XX",
"X. X.X..X  .XXXX.X..X  XXXXX.XXXXX ..XXXX..X.X.XX.XXX..X.X...X.X",
".X.X X. .XX.XXXX.X.XXXX X.XX.XXX. XX...XX... X....X.XX... XX.XX ",
"XX.X..X...X.. ... .  XX  .XX.....XX..X..XX.XX.....X .XX..X..X XX",
"  .XXX.X .XX...XXXX X  ..  X..X XXX .X..X. X. X.XX.....XXXX.XX.X",
".XX.XX.XX.XX X..X..XXXXXXXXX..XXX.....XX..X.X .X.X.X.....X.X..XX",
" ........X XXXX.X.X.... .X  XX..XX.X.X.XXX.....XX. .XX .X..X.X.X",
"  X .X..X...X.X .XX..XXXXX..X. ..X XXXX. X X X..X.XX..X. ..X..X.",
"..X ..X..X .X..X.. X. X ..X. X.XXXX  X..XX.X.X..X...... X..X.XXX",
"..XXXX. X... ...  X .XX.. X .. X. .X.X..XXXX.XX.X....XX. ..X.XX.",
" .XX.X..X.XXX..X X .. XXX.XX XX.X.X .XXX XXXX..X ...X.X..X.X....",
"X X......X..X .X.  XX.XXXXXXX..X..XXX...XX...XXXX.X....XXXXXX..X",
".. ....XX.....X.X.. ..X X.XXX.X.X..  .XXXXXX  X. X..X.... ..X XX",
"......X.XX.XX.....XXXX..X .XX XX..X XXXX.XX.X..  .X....X..X.X...",
".X.X .X...X. .. XX..XX..XX.X.. .X.X. .XX X.X..XXX.XX.  .X...X.X.",
"X.X  ...  ..X..X.XX..  .XXXXX XXXXXX.XXXXXX.......XXXX ...XX.XX.",
".X...  ..XX XX .  ....XX.XX.X.XX  .X .X .X .X.XXX..X..X ...X. ..",
"... X....X.XX.. .X..XXX... . XXX.XX X.XXXX .X.X.X... . ..XX..X..",
"X.......XXXXX..XX.XX.  XX..X..XX...XX..XX  .....XX.. X.. X.. X..",
"X.......X.X...X. .XX......X..XXXXX.X..X..XX .X ..XX.............",
"...X..X XX XXX. .X.X...X...XXXXX X.X.X..  X.XX..   X..XXXXX ....",
".. ..X..XXX. .XX X.....X X..X.XX.XXXXXX.. . XXXX.X.XX .X.X. X...",
".X..XX.X...X... .XX.XX ..XXXXXXX.X..XX.X...X...XX X..X.XX.......",
".X.X..X. ..X.....X.X. .XXX.. X.XX X X.X..X.X.XX..X..X..X......XX",
"............X....X.X.X.XXXX.XXXXX... X. XXX.X .X..X..X .X.XXX.X.",
"X.....X..X..X..X....XXX..X...X.. XXX .XXX......XX.X..X.X.XXXX.X.",
"....XX. X... . XX..XX X..X.X...XXX.XXX..X.....XXXX..XX.X.X.XX X ",
".....XX..XX... XX.XX.... .XX....XX.X.....XXX...X.XXX.X..X.......",
"..X..X...XXX. X.XXX..X  XXX  X.XX.XX.X....X.... .XXXX.X.X....X  ",
"....XXXX ..XX . . XXXX...X....XXXXX XX.XXX.X..X..XX XXX X.......",
"X......X.....XXX..X.XX..XXX.XX XXX. ..X. XX..X..XX.XXX.XX .XX.XX",
"..XXX.X. X... .. X........X... XX. .X.X.X.....X.XXX..XX.X.X....X",
"X....X..X......X.XX.X X...X..X. XX... ...X.X.X...... ...X...XXX.",
"...X.X X......XX.XX..X.XXX..XX....XX......X..XXXXX.XX....X ...X.",
".XX....X...X...X.X.XX....X...XXX....XX...X.X.... XX ..X. ..XXX..",
".....X.X........X...X...XX.XX..XX..XXXX....X.X...X.XX ..........",
"X..  . .X.XX.... X XXXX......X.X..XXXX.XX.X..X.X.XX..X........X.",
"......X....X.....X....XX..XXX.X....XXX.X. .XXX.XX.X.....XX.....X",
".... X..X ......X.X....X.X...XX...X.XX.X.X..... XX.....X.......X",
"X.... .XX....XX. ..X...... XXX....X..X.X ....X.X....X.X..X...XX.",
".X..X..X.X.....X....X.X. .X.XX.XX.X.. .XXX..X..X.X......X.XX.XXX",
"..X.XX.X.XXX ....X......XX. X  .XX.X...X.XX.X...X.XX.X.X.XX.X..X",
"..XX..X..XX X.X. X.. XXXX.X.....X. .X....X.... X.  .XXX X.XX.X..",
"...XX...X...... X.XXX.X..X.... .X.XX.X ..  X.XX...X. ......X ...",
".X.X X..X.X..XXX.X..XX. X X .X.XXXXX.X.X.....X..X.X .XXX.X.....X",
".X.X..XXX.. X .XXX.X X..X.X...X...XX ..X.X..XX.X.X..X..X...X.. .",
".X..XXX.XX.X.X .XX.X. . ..X....XX..X.. XX.X..X..XXX..XXX...X...."
};
