/* XPM */
static char *_382c06b8a5a4d68d3850dd4a18712d49Kt7HY0sRwwnYOd0[] = {
/* columns rows colors chars-per-pixel */
"64 64 10 1 ",
"  c #040008",
". c #0C001B",
"X c #14002A",
"o c #1E0B32",
"O c #281440",
"+ c #391E58",
"@ c #EFCB83",
"# c #F2D59D",
"$ c #F4DBA9",
"% c white",
/* pixels */
"#$$#@$#$$#$$#@$#$#$###$#$###$###$##$$@$##$$$#@$$######$##$####$#",
"##$##$###$##$$#$$$$$$#@##$##$$$###$##$@###$#$##$#####$#$$$#$#$#$",
"#$#$$#$$#$$$$$$##$#$###++++#@$@#$##$#$###$$$$###$##$$$#$##$#####",
"####$#$#@##$#$$$@#$#$+++++#@##$##$$$@$$###$+++++@#$####$$###@$#$",
"$$#@$#%#$$$@$$$$$@#++++++$#$$$##$$$$#$$@#++++++++##$$###$$$$##$$",
"$##$$%%%@#$$$@$$##++++++########$###+++++++++++++#@#$$@#$#$#@#$$",
"@$$$#@%#######$$#+++++++####+++++++++++++++++#$####%##$$#$###$#$",
"#$#$$$@@$$$$$$##+++++++#@@##++++++++++++++++######%%%$#$#$###@$$",
"$###$#@@$@@$##$$+++++++$+++++++++++++++++++$######$%$#####$$$$$$",
"$#$@@$$@$@@#$$$$+++++++++++++++++++++++++++#$#$#$$$##$$$$$#$#$$$",
"$$$$$$$#$$$$@$$$+++++++++++++++++++++++++++++$#@$$@#$$#$$$#$$#$$",
"$$$$$#$$$$$@$$$+++++++++++OOOOOOOOOOOOOO++++++$$$$#$#$$#$@#$#$$#",
"@$$$$$@$$#$@$#$+++++++OOOOOOOOOOOOOOOOOOOOOO+++##$$$$##$$#$##$##",
"#$$$@$$#$$##$##++++OOOOOOOOOOooooooooOOOOOOOOO++@###@#@###$#$$$#",
"$$#$##$#$$$##@#++OOOOOOOOOOoooooooooooooOOOOOOO++@##$@@#$$$$#$##",
"$$$#$$$@@#$$##++OOOOOOooooooooooooooooooooOOOOOO++++++++#@###@$#",
"#$$#$#@#$@##@++OOOOOooooooooooooooooooooooooOOOOO++++++++++#$##$",
"$#$#$####$#@++OOOOoooooooooooooXXXXXXooooooooOOOOO++++++++++$#$$",
"$#@$#$##$@@++OOOOooooooooooXXXXXXXXXXXXXooooooOOOO+++++++++++$#$",
"#$#$@$#@#$$+OOOOooooooooXXXXXXXXXXXXXXXXXoooooOOOOO+++++++++++$@",
"$$#$##$###++OOOOoooooooXXXXXXXXXXXXXXXXXXXXooooOOOO+++++++++++$$",
"@@#$$$#$@#++OOOooooooXXXXXXXXXXXXXXXXXXXXXXXoooOOOOO+++++$$#$+#$",
"#$$#$$#$$#++OOOoooooXXXXXXXXXXXXXXXXXXXXXXXXXoooOOOOO++##$#$##$$",
"@###%####+++OOoooooXXXXXXXX......XXXXXXXXXXXXoooOOOOO+++$##$#$#$",
"@@$%%%##$+++OOoooooXXXXXX..........XXXXXXXXXXXoooOOOOO++@##$%#$#",
"##$@%#$##++OOOooooXXXXX..............XXXXXXXXXXooOOOOO++$##%%%$$",
"##$$$$#@$++OOOoooXXXXX................XXXXXXXXXoooOOOOO+@##$%$$#",
"@#$$#$##$++OOOoooXXXX.......    .......XXXXXXXXoooOOOOO+#$#$####",
"$@$######++OOooooXXXX.....        .....XXXXXXXXXooOOOOO+$$$$$##$",
"##@####$$++OOoooXXXX.....          .....XXXXXXXXoooOOOO+#@##$@$$",
"######$++++OOoooXXXX....            ....XXXXXXXXooooOOO+##$#$###",
"#$#$@#++++++OoooXXX....              ....XXXXXXXooooOOO+$###$#$#",
"$#$@@+++++++OoooXXX....              ....XXXXXXXoooooOO+##$$#$$#",
"#$##+++++++OOOooXXX...                ...XXXXXXXoooooOO+###$#@##",
"###@++++++OOOOooXXX...                ...XXXXXXXooooooO+#$$##$##",
"$##+++++$+OOOOOooXX...                ...XXXXXXXooooooO+@$##@$##",
"$##++++#$+OOOOOooXX...                ...XXXXXXXooooooO+########",
"###++++@$+OOOOOooXXX...              ...XXXXXXXoooooooO+$$$@####",
"##@+++##$+OOOOOoooXX...              ...XXXXXXXooooooOO+#$#@$###",
"#$#++$#$#++OOOOOoooXX...            ...XXXXXXXXooooooO++$#######",
"#$#++#$#@#++OOOOoooXX....          ....XXXXXXXooooooOO++++####$$",
"###++#####+++OOOOoooXX....        ....XXXXXXXoooooooOO+++++$$#$#",
"$##++#$##$++++OOOooooXX.....    .....XXXXXXXXooooooOOO+++++$$#$#",
"###+$$#@$##++++OOOoooooXX..........XXXXXXXXXoooooooOO++++++$$@$@",
"###+#$$##$$#++++OOOoooooXXX......XXXXXXXXXXoooooooOOO+++++++####",
"##++#$###$$$#+++OOOoooooooXXXXXXXXXXXXXXXooooooooOOO++++++++#$@@",
"####$$$$@##$$+++OOOOoooooooXXXXXXXXXXXXXooooooooOOOO$$$++++++###",
"$######$#####$+++OOOooooooooooXXXXXXXooooooooooOOOO+$$#++++++#$$",
"##$$$#$#@$###@#+++OOOooooooooooooooooooooooooOOOOO$##$$#+++++##$",
"$####$##$######++++OOOoooooooooooooooooooooOOOOO####@###$+++++$#",
"###$#$@$######$++++OOOOOoooooooooooooOOOOOOOOOO$$$#$$####$++++$#",
"#$$####$###$###++++OOOOOOOoooooooooOOOOOOOO+OO##@$$@##$#@#++++##",
"#####$#$#######++++OOOOOOOOOOooooOOOOOOOOO++O$###$#$$@#####+++##",
"$##@@#@#$#$$###+++++OOOOOOOOOOOOOOOOOOOO++++#$#$#$$##$######++$#",
"######$####$###+++++++++++++OOOOOOOO++++++++$$#$$#$#####$$###+#$",
"####@$##$@#####++++#++++#$##+++++++++$++++++###@$$####%$#####+#$",
"$####@#$$####$$#++++######@$$$####$##$#++++##$#$####$%%%#$###$$#",
"#$##%##$#$#####$++++$#$#@#$#$$#$$#$##@+++++#$##$#$####%#$#$$#$$$",
"##$%%%#$#$$$@####++++###$$#@$@@#$$#$##+++++#$###$#$$#$#$#$$#$##$",
"##$$%#$##$$@$#$#@$#+++$$$#$#####$#@#$#++++####@$#@@#$$$@$#$$#$##",
"###$$###$######@$#$$++$##$####@#$#$$#+++++@$#$$###$#@######$@###",
"#$#$@$##$#$##$$$#$##$++@$@$@#$#$$$$$#++++####$##$#$@#$$$#$#####$",
"#$#$##$$$##@$@#$$$#$@$##$#$###$###$$@#++#$##$$#$#$##$##$###$##@#",
"#$##$$$#$$#$#$@#$$#$#@#@##$####$$##$##@$$#$##$##$$$##$$$###$####"
};
