/* XPM */
static char *e19360936d1e4098ac2ea458cbe52e49pTAUeEFt9jXT3DsV[] = {
/* columns rows colors chars-per-pixel */
"64 64 10 1 ",
"  c #040008",
". c #0C001B",
"X c #14002A",
"o c #1E0B32",
"O c #281440",
"+ c #391E58",
"@ c #EFCB83",
"# c #F2D59D",
"$ c #F4DBA9",
"% c white",
/* pixels */
"#$$#@$#$$#$$#@$#$#$###$#$###$###$##$$@$##$$$#@$$######$##$####$#",
"##$##$###$##$$#$$$$$$#@##$##$$$###+##$@###$#$##$#####$#$$$#$#$#$",
"#$#$$#$$#$$$$$$##$#$###@$@$#@$@#++++++++#$$$$###$##$$$#$##$#####",
"####%#$#@##$#$$$@#$#$$$#$##@##$++++++++++#$##$$$@#$####$$###@$#$",
"$$#%%%$#$$$@$$$$$@#$$$$#@$#$$$++++++++++####$$$@##%$$###$$$$##$$",
"$##$%##$@#$$$@$$###$@$@@#####+++++++$##$#$####@$#%%%$$@#$#$#@#$$",
"@$$$#@$#######$$#$###$$$####+++++++@$####@##$#$###%$##$$#$###$#$",
"#$#$$$@@$$$$$$##$$#$$$@#@@##+++++++++$##$#@@#########$#$#$###@$$",
"$###$#@@$@@+##$$$$$$@##$+++++++++++++++++$$$######$#$#####$$$$$$",
"$#$@@$$@$@+++$$$$$$$$$++++++++++++++++++++++++$#$$$##$$$$$#$#$$$",
"$$$$$$$#$++++$$$$#@$++++++++++++++++++++++++++++++++$$#$$$#$$#$$",
"$$$$$#$$$++++$$$@$$+++++++OOOOOOOOOOOOOO+++++++++++++++#$@#$#$$#",
"@$$$$$@$+++++#$##+++++OOOOOOOOOOOOOOOOOOOOOO++++++++++++++$##$##",
"#$$$@$$#++++++#$+++OOOOOOOOOOooooooooOOOOOOOOO+++++++++++++#$$$#",
"$$#$##$#++++++#++OOOOOOOOOOoooooooooooooOOOOOOO++++++++++++++$##",
"$$$#$$$@++++++++OOOOOOooooooooooooooooooooOOOOOO++++++++++++++$#",
"#$$#$#@#+++++++OOOOOooooooooooooooooooooooooOOOOO+++@####++++##$",
"$#$#$###++++++OOOOoooooooooooooXXXXXXooooooooOOOOO++@$$$@#$#$#$$",
"$#@$#$##+++++OOOOooooooooooXXXXXXXXXXXXXooooooOOOO+++##$#$###$#$",
"#$#$@$#@#+++OOOOooooooooXXXXXXXXXXXXXXXXXoooooOOOOO+++###@$$#$$@",
"$$#$##$###++OOOOoooooooXXXXXXXXXXXXXXXXXXXXooooOOOO+++$##$##$@$$",
"@@#$$$#$@#++OOOooooooXXXXXXXXXXXXXXXXXXXXXXXoooOOOOO+++$$$$#$$#$",
"#$$#$$#$$#++OOOoooooXXXXXXXXXXXXXXXXXXXXXXXXXoooOOOOO++##$#%##$$",
"@########+++OOoooooXXXXXXXX......XXXXXXXXXXXXoooOOOOO+++$#%%%$#$",
"@@$@#$##$+++OOoooooXXXXXX..........XXXXXXXXXXXoooOOOOO++@##%##$#",
"##$%##$##++OOOooooXXXXX..............XXXXXXXXXXooOOOOO++$##$#$$$",
"##%%%$#@$++OOOoooXXXXX................XXXXXXXXXoooOOOOO+@##$#$$#",
"@#$%#$##+++OOOoooXXXX.......    .......XXXXXXXXoooOOOOO++$#$####",
"$@$#####+++OOooooXXXX.....        .....XXXXXXXXXooOOOOO++$$$$##$",
"##@####$+++OOoooXXXX.....          .....XXXXXXXXoooOOOO++@##$@$$",
"######$#+++OOoooXXXX....            ....XXXXXXXXooooOOO++#$#$###",
"#$#$@#$#++++OoooXXX....              ....XXXXXXXooooOOO+++##$#$#",
"$#$@@###++++OoooXXX....              ....XXXXXXXoooooOO++++$#$$#",
"#$###@@#+++OOOooXXX...                ...XXXXXXXoooooOO+++++#@##",
"###@$##+++OOOOooXXX...                ...XXXXXXXooooooO++++++$##",
"$######++OOOOOOooXX...                ...XXXXXXXooooooO++++++$##",
"$#####++OOOOOOOooXX...                ...XXXXXXXooooooO++++++###",
"###$##++OOOOOOOooXXX...              ...XXXXXXXoooooooO+++++++##",
"##@##$++OOOOOOOoooXX...              ...XXXXXXXooooooOO+++++++##",
"#$##$$+OOOOOOOOOoooXX...            ...XXXXXXXXooooooOO+$#++++##",
"#$#$##+OOOO+OOOOoooXX....          ....XXXXXXXooooooOO+$###+++$$",
"######++OO+++OOOOoooXX....        ....XXXXXXXoooooooOO+#$#$$+#$#",
"$#####++++++++OOOooooXX.....    .....XXXXXXXXooooooOOO#$#$$$$#$#",
"####$$++++#++++OOOoooooXX..........XXXXXXXXXoooooooOO+#$#$#$$@$@",
"#####$++++$#++++OOOoooooXXX......XXXXXXXXXXoooooooOOO$##$#######",
"##$##$+++$$$#+++OOOoooooooXXXXXXXXXXXXXXXooooooooOOO+#$#$####$@@",
"####$$+++##$$+++OOOOoooooooXXXXXXXXXXXXXooooooooOOOO$$$@$#######",
"$#####+++####$+++OOOooooooooooXXXXXXXooooooooooOOOO+$$#$$@#$$#$$",
"##$$$#+++$###@#+++OOOooooooooooooooooooooooooOOOOOO+#$$#$#$####$",
"$####$+++######$+++OOOoooooooooooooooooooooOOOOOOO++@###$###$$$#",
"###$#$@+######$$#++OOOOOoooooooooooooOOOOOOOOOOOOO+$$####$@###$#",
"#$$####$###$###$#++OOOOOOOoooooooooOOOOOOOOOOOOOOO+@##$#@##$$$##",
"#####$#$########$#+OOOOOOOOOOooooOOOOOOOOOOOOOOOO++$$@##########",
"$##@@#@#$#$$####@$++OOOOOOOOOOOOOOOOOOOOOOO##+OO++$##$########$#",
"######$####$#####$#+++++++++OOOOOOOO+++++@#$$++++#$#####%$#####$",
"####@$##$@######$#$#++++#$##+++++++++$#$#$###++++$#####%%%#####$",
"$####@#$$####$$#@##$++++##@$$$####$##$#$@####+++####$#$#%$###$$#",
"#$##$##$#$#####$####$++++#$#$$#$$#$##@#$$$##+++$#$######$#$$#$$$",
"##$#$%#$#$$$@####$####+++$#@$@@#$$#$###$#$$#$+##$#$$#$#$#$$#$##$",
"##$$%%%##$$@$#$#@$##@$$+++$#####$#@#$####$####@$#@@#$$$@$#$$#$##",
"###$$%##$######@$#$$$#$#+++###@#$#$$#$@##@@$#$$###$#@######$@###",
"#$#$@$##$#$##$$$#$##$$#@$+$@#$#$$$$$#$#$#####$##$#$@#$$$#$#####$",
"#$#$##$$$##@$@#$$$#$@$##$#$###$###$$@##$#$##$$#$#$##$##$###$##@#",
"#$##$$$#$$#$#$@#$$#$#@#@##$####$$##$##@$$#$##$##$$$##$$$###$####"
};
