/* XPM */
static char *_2707d9bfb994f3ad07b003e43bf40cdNA4BiNwoitRkgUme[] = {
/* columns rows colors chars-per-pixel */
"64 64 2 1 ",
"  c white",
". c black",
/* pixels */
"                                                                ",
"                                                                ",
"                                                                ",
"                                                                ",
"                                                                ",
"                                                                ",
"                                                                ",
"                                                                ",
"                                                                ",
"                                                                ",
"                                                                ",
"                                                                ",
"                                                                ",
"                                                                ",
"                                                                ",
"                                                                ",
"                                                                ",
"                                                                ",
"                                                                ",
"                                                                ",
"                         ............                           ",
"                         .............                          ",
"                         ...       ....                         ",
"                         ...        ....                        ",
"                         ...         ...                        ",
"                         ...         ...                        ",
"                         ...          ..                        ",
"                         ...          ..                        ",
"                         ...         ...                        ",
"                         ...         ...                        ",
"                         ...         ...                        ",
"                         ...       ....                         ",
"                         .............                          ",
"                         ............                           ",
"                         .........                              ",
"                         ...                                    ",
"                         ...                                    ",
"                         ...                                    ",
"                         ...                                    ",
"                         ...                                    ",
"                         ...                                    ",
"                         ...                                    ",
"                         ...                                    ",
"                                                                ",
"                                                                ",
"                                                                ",
"                                                                ",
"                                                                ",
"                                                                ",
"                                                                ",
"                                                                ",
"                                                                ",
"                                                                ",
"                                                                ",
"                                                                ",
"                                                                ",
"                                                                ",
"                                                                ",
"                                                                ",
"                                                                ",
"                                                                ",
"                                                                ",
"                                                                ",
"                                                                "
};
