/* XPM */
static char *aa450f0f979c42f0bfaff0adf5c43ddd8i8bOXmvYLT8Vy9H[] = {
/* columns rows colors chars-per-pixel */
"64 64 10 1 ",
"  c None",
". c #45283C",
"X c #9A2727",
"o c #AC3232",
"O c #CE4439",
"+ c #E84832",
"@ c #EF614D",
"# c #F48E7F",
"$ c #D9A863",
"% c #D9AE61",
/* pixels */
"                                                                ",
"                                                                ",
"                                                                ",
"                                                                ",
"                                                                ",
"                                           OO                   ",
"                                         ##+OO                  ",
"                                           #++O                 ",
"                      OO                    +++O                ",
"                     O+##+                   ++OO               ",
"                    OO#+                     +++OO              ",
"                   O++                   #    +++O              ",
"                   O++                   +    +++O              ",
"                  O++    #              O++   +++O              ",
"                 O+++    +               O++  +++O              ",
"                 O++    +                 OO+O++++O             ",
"                O+++   O++                 O+++#++OO            ",
"               OO++#OO+++                  O++###++O            ",
"              OO++###+++                  OO++###++O            ",
"              O++++#+++O           OO     O++++#++OO            ",
"              O+++++++O OO        #++O    O+++++++O             ",
"              O+++++OO #++O      O+.%+O   O+++++++O             ",
"               O+++OO O+.$+O     O+..+O    +++++++O             ",
"                O+OO  O+..+O      O++O      O++++O              ",
"                +++    O++O        OO        OO+O               ",
"         +     ++#++    OO   OOOOOOOOO        +++     +         ",
"         O    O+###+O   OOOOOOOOOOOOOOOO     O+++O   +          ",
"          +   O++#++O  OOO@@@@#OOOOOOOOOO   O++#++O  +          ",
"          O++ OO+++OOOO@@@###@@@++++++OOOO O++###+O  O          ",
"       +  OOO+ OOOOO@@@###@@@@@@++++++++OOOO+###++O +    ++     ",
"       O    O++ OOO@@##@@@@@@@@+++++++++++OO++#++O +    +       ",
"        +    OO++++@@@@@@@@++++++++++++++++OO++OO +    +        ",
"        O     OO++++@@@@++++++++++++++++++++OOOOO+    +         ",
"         O++   O++++oo++++++++++++++o++++++++O O    OO          ",
"          OOO+ O+++++oXXX+++++++++oo++++++++++O  OOO            ",
"           OOOO++++++ooXXXXXXXXXoo++++++++++++OOO               ",
"             OOOOOO+++ooXXXXXXXoo+++++++++++++O                 ",
"                 OOO+++oooooooo++++++++++++++++++++             ",
"              +++++++++++++++++++++++++++++++OOOOOO++           ",
"            +++++++++++++++++OOOOOOOO+++++++O     OOO+          ",
"           +++OOOOOOOOOO+++OOOOOOOOOOOO+++++        OO+         ",
"          +OOO        ++OOOOOOO      OOOOOO++        OO+        ",
"         +OO       +++OOOOO           OOOOOOO+        OO+       ",
"        +OO       +OOOOOOO             OOOOOOO++       OO       ",
"       +OO       ++OOOO                      OO++      OO       ",
"       +O        +OO                          OOO++     OO      ",
"      +O        ++O                             OO++     O      ",
"      +         +OO                              OOO     O      ",
"     +          OO                                 O     O      ",
"     O          OO                                 O     O      ",
"     O          O                                   O    O      ",
"                O                                               ",
"                O                                               ",
"                O                                               ",
"                O                                               ",
"                O                                               ",
"                                                                ",
"                                                                ",
"                                                                ",
"                                                                ",
"                                                                ",
"                                                                ",
"                                                                ",
"                                                                "
};
