/* XPM */
static char *_5512250c1934f94f5c79aabe7119adei390nMJ6IoegEW43[] = {
/* columns rows colors chars-per-pixel */
"64 64 10 1 ",
"  c None",
". c #45283C",
"X c #9A2727",
"o c #AC3232",
"O c #CE4439",
"+ c #E84832",
"@ c #EF614D",
"# c #F48E7F",
"$ c #D9A863",
"% c #D9AE61",
/* pixels */
"                                                                ",
"                                                                ",
"                                                                ",
"                                                                ",
"                                           OO                   ",
"                                         ##+OO                  ",
"                                           #++O                 ",
"                                            +++O                ",
"                                             ++OO               ",
"                      OO                   # +++OO              ",
"                     O+##+                O#  +++O              ",
"                    OO#+                  O+  +++O              ",
"                   O++                    O+  +++O              ",
"                   O++                    O+  +++O              ",
"                  O++    #                OO+O++++O             ",
"                 O+++    +                 O+++#++OO            ",
"                 O++    +                  O++###++O            ",
"                O+++   O++                OO++###++O            ",
"               OO++#OO+++          OO     O++++#++OO            ",
"              OO++###+++          #++O    O+++++++O             ",
"              O++++#+++O         O+.%+O   O+++++++O             ",
"              O+++++++O OO       O+..+O    +++++++O             ",
"              O+++++OO #++O       O++O      O++++O              ",
"               O+++OO O+.$+O       OO        OO+O               ",
"         +      O+OO  O+..+O       OO         +++               ",
"         O      +++    O++O  OOOOOOOOO       O+++O   +          ",
"          +    ++#++    OOOOOOOOOOOOOOOO    O++#++O  +          ",
"          O+  O+###+O  OOO@@@@#OOOOOOOOOO  O++###+O +           ",
"       +  OO+ O++#++OOO@@@###@@@++++++OOOO O+###++O O    +      ",
"       O    + OO+++OO@@###@@@@@@++++++++OOOO++#++O +    +       ",
"       O    ++ OOOOO@##@@@@@@@@+++++++++++OOO++OO  +   +        ",
"       O    OO++OOO@@@@@@@@++++++++++++++++O OOO  +   +         ",
"        O++  OO+++++@@@@++++++++++++++++++++O   O+   O          ",
"         OO    O++++oo++++++++++++++o++++++++O O    O           ",
"          OO+  OOO+++oXXX+++++++++oo++++++++++O  OOO            ",
"           OOO++OO+++ooXXXXXXXXXoo++++++++++++OOO               ",
"                +OO+++ooXXXXXXXoo+++++++++++++O                 ",
"                +++++++oooooooo++++++++++++++++++++             ",
"             ++++++++++++++++++++++++++++++++OOOOOO++           ",
"           +++++OOOOOO++O+++OOOOOOOOO+O+++++O     OOO+          ",
"          +++OOO    O++OOOOOOOOOOOOOOOOOOOO++       OO+         ",
"         +OOO     +++OOOOOOOOOO       OOOOOOO+       OO+        ",
"        +OO      +OOOOOO                   OOO        OO+       ",
"       +OO      ++OOOO                       O++       OO       ",
"       +O       +OO                           O++      OO       ",
"      +O        +O                            OOO+      O       ",
"      +O        +O                             OO++     O       ",
"     +O         OO                              OOO     O       ",
"     #+         OO                                O     O       ",
"     +          O                                 O     O       ",
"     O          O                                  O    O       ",
"     O          O                                               ",
"                O                                               ",
"                O                                               ",
"                O                                               ",
"                                                                ",
"                                                                ",
"                                                                ",
"                                                                ",
"                                                                ",
"                                                                ",
"                                                                ",
"                                                                ",
"                                                                "
};
