/* XPM */
static char *cc0cbc4c98764c39aad10f73d1f2247dykRLpgE2umtKcfy4[] = {
/* columns rows colors chars-per-pixel */
"64 64 12 1 ",
"  c #45283C",
". c #9A2727",
"X c #AC3232",
"o c #CE4439",
"O c #E84832",
"+ c #EF614D",
"@ c #F48E7F",
"# c #D9A863",
"$ c #D9AE61",
"% c #EFCB83",
"& c #F2D59D",
"* c #F4DBA9",
/* pixels */
"&**&%*&**&**&%*&*&*&&&*&*&&&*&&&*&&**%*&&***&%**&&&&&&*&&*&&&&*&",
"&&*&&*&&&*&&**&******&%&&*&&***&&&*&&*%&&&*&*&&*&&&&&*&***&*&*&*",
"&*&**&**&******&&*&*&&&%*%*&%*%&*&&*&*&&&****&&&*&&***&*&&*&&&&&",
"&&&&*&*&%&&*&***%&*&***&*&&%&&*&&***%**&&&*&&***%&*&&&&**&&&%*&*",
"**&%*&*&***%*****%&****&%*&***&&****&**%&&&oo**%&&&**&&&****&&**",
"*&&**&&*%&***%**&&&*%*%%&&&&&&&&*&&&*&&*&@@Ooo%*&&%&**%&*&*&%&**",
"%***&%*&&&&&&&**&*&&&***&&&&&*&*&&&%*&&&&%&@OOo&&&&*&&**&*&&&*&*",
"&*&***%%******&&**&***%&%%&&&&*&&&&&%*&&*&%%OOOo&&&&&*&*&*&&&%**",
"*&&&*&%%*%%*&&******%&&*%***&&%&*&&**&*&&***&OOoo&*&*&&&&&******",
"*&*%%**%*%%&**********oo*&&&&&*&**&*&*&&*&*@*OOOoo*&&*****&*&***",
"*******&****%****&%*%oO@@O&&&*&%%%&&&*&**%o@**OOOo%&**&***&**&**",
"*****&*****%****%***oo@O%&**%*&&&***&*&&**oO&*OOOo&*&**&*%&*&**&",
"%*****%**&*%*&*&&**oOO*&*&%*%**%*%&**&**&&oO*&OOOo***&&**&*&&*&&",
"&***%**&**&&*&&****oOO**&&&&&&******&&****oO*&OOOo&&%&%&&&*&***&",
"**&*&&*&***&&%&*&&oOO*&&*@%&&*%&***&&%*%&%ooOoOOOOo&*%%&****&*&&",
"***&***%%&**&&&&*oOOO**&*O**%&*%**%&&**%&*&oOOO@OOoo**&&&%&&&%*&",
"&**&*&%&*%&&%&&&&oOO*%&*O**&%***&&*&&&&&&&&oOO@@@OOo%&&&&**&*&&*",
"*&*&*&&&&*&%%%**oOOO&&%oOO**%&**%**&******ooOO@@@OOo%***%&*&*&**",
"*&%*&*&&*%%&***ooOO@ooOOO***&*****%oo****&oOOOO@OOoo*&&*&*&&&*&*",
"&*&*%*&%&**&**ooOO@@@OOO*&**&***&%@OOo&**&oOOOOOOOo&**&&&%**&**%",
"**&*&&*&&&*&&%oOOOO@OOOo%&**&&&&&oO $Oo&**oOOOOOOOo%&**&&*&&*%**",
"%%&***&*%&**&&oOOOOOOOo&oo%*&&*%*oO  Oo&*&%OOOOOOOo&&&&****&**&*",
"&**&**&**&**%*oOOOOOoo*@OOo*&&***&oOOo**&&*&oOOOOo&*&&&&&*&*&&**",
"%&&&&&&&&*%****oOOOoo&oO #Oo**&&**&oo*&***&&&ooOo&%&**%&*&&*&*&*",
"%%*%&*&&*O&&*&*%oOoo&*oO  Oo*&%&&*%oo**&%*%*%*OOO&**&&*&%&&*&&*&",
"&&*%&&*&&o%&*&&*OOO*&%*oOOo&%ooooooooo&&**&*&oOOOo&&&O&%*&&*&***",
"&&****&%*&O&%&&OO@OO&**&oooooooooooooooo****oOO@OOo&&O*&%&&*&**&",
"%&**&*&&*&oO*&oO@@@Oo%*ooo++++@oooooooooo**oOO@@@Oo&O&*&&*&*&&&&",
"*%*&&&&O&*ooO%oOO@OOooo+++@@@+++OOOOOOoooo&oO@@@OOo&o&&**O***&&*",
"&&%&&&&o*&&&O&ooOOOoo++@@@++++++OOOOOOOOooooOO@OOo&O*&&&O%&&*%**",
"&&&&&&*o**&*OO&ooooo+@@++++++++OOOOOOOOOOOoooOOoo&*O&&&O&&*&*&&&",
"&*&*%&*o&&*&ooOOooo++++++++OOOOOOOOOOOOOOOOo&ooo*&O*&%O&*&&&*&*&",
"*&*%%&&&oOO&*ooOOOOO++++OOOOOOOOOOOOOOOOOOOOo&&&oO***o%&&&**&**&",
"&*&&&%%&&oo%**%oOOOOXXOOOOOOOOOOOOOOXOOOOOOOOo*o*&&*o&*%&&&*&%&&",
"&&&%*&&&&*ooO&&oooOOOX...OOOOOOOOOXXOOOOOOOOOOo&*ooo%&%&&**&&*&&",
"*&&&&&&&***oooOOooOOOXX.........XXOOOOOOOOOOOOooo*&&%*&&%*&&%*&&",
"*&&&&&&&*&*&&&*&OooOOOXX.......XXOOOOOOOOOOOOOo&&**&&&&&&&&&&&&&",
"&&&*&&*%**%***&%OOOOOOOXXXXXXXXOOOOOOOOOOOOOOOOOOOO*&&*****%&&&&",
"&&%&&*&&***&%OOOOOOOOOOOOOOOOOOOOOOOOOOOOOOOOooooooOO%&*&*&%*&&&",
"&*&&**&*&&&OOOOOooooooOOoOOOoooooooooOoOOOOOo&&**%oooO&**&&&&&&&",
"&*&*&&*&%&OOOooo&*&*oOOooooooooooooooooooooOO**&&*&&ooO*&&&&&&**",
"&&&&&&&&&Oooo&&&&*OOOoooooooooo**&&&%*oooooooO&*&&*&&ooO*&***&*&",
"*&&&&&*&Ooo&*&&*&Ooooooo&*&&&*&&%***%&***&&ooo&**&*&&*ooO****&*&",
"&&&&**&Ooo&&%&%*OOoooo*&&*&*&&&***&***&&*&&&&oOO**&&**&oo*&**%*%",
"&&&&&**Oo**&&&%*Ooo*&&&&%&**&&&&**&*&&&&&***&&oOO***&*&oo&&&&&&&",
"&&*&&*Oo&***&%*&Oo*&&*%%***%%*&**&**&*&&&&*&&&oooO***&*&o&&&&*%%",
"&&&&**Oo%&&**%&%Oo****&&&*&&&&*****%**&***&*&&*ooOO%***%o&&&&&&&",
"*&&&&Oo*&&&&&***oo*&**&&***&**%***&%&&*&%**&&*&&ooo***&*o%&**&**",
"&&***@O&%*&&&%&&oo&&&&&&&&*&&&%**&%&*&*&*&&&&&*&**o&&**&o&*&&&&*",
"*&&&&O&&*&&&&&&*o**&*%*&&&*&&*&%**&&&%&&&*&*&*&&&&o&%&&&o&&&***&",
"&&&*&o%*&&&&&&**o**&&*&***&&**&&&&**&&&&&&*&&*****&o*&&&o*%&&&*&",
"&**&&o&*&&&*&&&*o*&**&&&&*&&&***&&&&**&&&*&*&&&&%**%&&*&%&&***&&",
"&&&&&*&*&&&&&&&&o&&&*&&&**&**&&**&&****&&&&*&*&&&*&**%&&&&&&&&&&",
"*&&%%&%&*&**&&&&o*%****&&&&&&*&*&&****&**&*&&*&*&**&&*&&&&&&&&*&",
"&&&&&&*&&&&*&&&&o*&&&&**&&***&*&&&&***&*&%&***&**&*&&&&&**&&&&&*",
"&&&&%*&&*%&&&&&&*&*&&&&*&*&&&**&&&*&**&*&*&&&&&%**&&&&&*&&&&&&&*",
"*&&&&%&**&&&&**&%&&*&&&&&&%***&&&&*&&*&*%&&&&*&*&&&&*&*&&*&&&**&",
"&*&&*&&*&*&&&&&*&&&&*&*&%&*&**&**&*&&%&***&&*&&*&*&&&&&&*&**&***",
"&&*&**&*&***%&&&&*&&&&&&**&%*%%&**&*&&&*&**&*&&&*&**&*&*&**&*&&*",
"&&**&&*&&**%*&*&%*&&%****&*&&&&&*&%&*&&&&*&&&&%*&%%&***%*&**&*&&",
"&&&**&&&*&&&&&&%*&***&*&&*&&&&%&*&**&*%&&%%*&**&&&*&%&&&&&&*%&&&",
"&*&*%*&&*&*&&***&*&&**&%*%*%&*&*****&*&*&&&&&*&&*&*%&***&*&&&&&*",
"&*&*&&***&&%*%&***&*%*&&*&*&&&*&&&**%&&*&*&&**&*&*&&*&&*&&&*&&%&",
"&*&&***&**&*&*%&**&*&%&%&&*&&&&**&&*&&%**&*&&*&&***&&***&&&*&&&&"
};
