/* XPM */
static char *e5e425bd0fa64cd88b53abfe8366ccf7Zpatdq5Niuo5ilGo[] = {
/* columns rows colors chars-per-pixel */
"64 64 12 1 ",
"  c #45283C",
". c #9A2727",
"X c #AC3232",
"o c #CE4439",
"O c #E84832",
"+ c #EF614D",
"@ c #F48E7F",
"# c #D9A863",
"$ c #D9AE61",
"% c #EFCB83",
"& c #F2D59D",
"* c #F4DBA9",
/* pixels */
"&**&%*&**&**&%*&*&*&&&*&*&&&*&&&*&&**%*&&***&%**&&&&&&*&&*&&&&*&",
"&&*&&*&&&*&&**&******&%&&*&&***&&&*&&*%&&&*&*&&*&&&&&*&***&*&*&*",
"&*&**&**&******&&*&*&&&%*%*&%*%&*&&*&*&&&****&&&*&&***&*&&*&&&&&",
"&&&&*&*&%&&*&***%&*&***&*&&%&&*&&***%**&&&*&&***%&*&&&&**&&&%*&*",
"**&%*&*&***%*****%&****&%*&***&&****&**%&&&&***%&&&**&&&****&&**",
"*&&**&&*%&***%**&&&*%*%%&&&&&&&&*&&&*&&*&*&oo&%*&&%&**%&*&*&%&**",
"%***&%*&&&&&&&**&*&&&***&&&&&*&*&&&%*&&&&@@Ooo*&&&&*&&**&*&&&*&*",
"&*&***%%******&&**&***%&%%&&&&*&&&&&%*&&*&%@OOo&&&&&&*&*&*&&&%**",
"*&&&*&%%*%%*&&******%&oo%***&&%&*&&**&*&&***OOOo&&*&*&&&&&******",
"*&*%%**%*%%&*********oO@@O&&&&*&**&*&*&&*&*&*OOoo**&&*****&*&***",
"*******&****%****&%*oo@O*&&&&*&%%%&&&*&**%&&*OOOoo%&**&***&**&**",
"*****&*****%****%**oOO*&%&**%*&&&***&*&&*@&&&*OOOo&*&**&*%&*&**&",
"%*****%**&*%*&*&&**oOO*&*&%*%**%*%&**&**&O%&*&OOOo***&&**&*&&*&&",
"&***%**&**&&*&&***oOO***&@&&&&******&&**oOO&*&OOOo&&%&%&&&*&***&",
"**&*&&*&***&&%&*&oOOO*&&*O%&&*%&***&&%*%&oOO&&OOOo&&*%%&****&*&&",
"***&***%%&**&&&&*oOO***&O&**%&*%**%&&**%&*ooOoOOOOo***&&&%&&&%*&",
"&**&*&%&*%&&%&&&oOOO*%&oOO*&%***&&*&&&&&&&&oOOO@OOoo%&&&&**&*&&*",
"*&*&*&&&&*&%%%*ooOO@ooOOO***%&**%**&*******oOO@@@OOo%***%&*&*&**",
"*&%*&*&&*%%&**ooOO@@@OOO****&*****%&&****&ooOO@@@OOo*&&*&*&&&*&*",
"&*&*%*&%&**&**oOOOO@OOOo*&**&***&%*oo&&**&oOOOO@OOoo**&&&%**&**%",
"**&*&&*&&&*&&%oOOOOOOOo%oo**&&&&&*@OOo&&**oOOOOOOOo%&**&&*&&*%**",
"%%&***&*%&**&&oOOOOOoo%@OOo*&&*%*oO $Oo&*&oOOOOOOOo&&&&****&**&*",
"&**&**&**&**%*&oOOOoo*oO #Oo&&***oO  Oo*&&*OOOOOOOo*&&&&&*&*&&**",
"%&&&&&&&&*%****&oOoo&&oO  Oo**&&**oOOo&***&&oOOOOo%&**%&*&&*&*&*",
"%%*%&*&&*&&&*&*%OOO&&**oOOo&*&%&&*%oo**&%*%*%ooOo&**&&*&%&&*&&*&",
"&&*%&&*&&O%&*&&OO@OO&%*%oo*&%ooooooooo&&**&*&*OOO&&&&&O%*&&*&***",
"&&****&%*o&&%&oO@@@Oo**&oooooooooooooooo****&oOOOo&&&O*&%&&*&**&",
"%&**&*&&*&O**&oOO@OOo%*ooo++++@oooooooooo***oOO@OOo&*O*&&*&*&&&&",
"*%*&&&&&&*oOO%ooOOOoooo+++@@@+++OOOOOOoooo&oOO@@@Oo&&o&******&&*",
"&&%&&&&O*&oooO*ooooo+++@@@++++++OOOOOOOOooooO@@@OOo&O&&&&OO&*%**",
"&&&&&&*o**&*oOO&ooo++@@++++++++OOOOOOOOOOOooOO@OOo*O&&&*O&*&*&&&",
"&*&*%&*&O&*&%ooOOOO++++++++OOOOOOOOOOOOOOOOooOOoo&O*&%%O*&&&*&*&",
"*&*%%&&&o%&&*&ooOOOO++++OOOOOOOOOOOOOOOOOOOOoooooO****O&&&**&**&",
"&*&&&%%&&oOO**%oOOOOXXOOOOOOOOOOOOOOXOOOOOOOOo*o*&&*oo*%&&&*&%&&",
"&&&%*&&&&*oooO&oOOOOOX...OOOOOOOOOXXOOOOOOOOOOo&*ooo%&%&&**&&*&&",
"*&&&&&&&***ooooOOOOOOXX.........XXOOOOOOOOOOOOooo*&&%*&&%*&&%*&&",
"*&&&&&&&*&*&&ooooooOOOXX.......XXOOOOOOOOOOOOOo&&**&&&&&&&&&&&&&",
"&&&*&&*%**%***&%&oooOOOXXXXXXXXOOOOOOOOOOOOOOOOOOOO*&&*****%&&&&",
"&&%&&*&&***&%&OOOOOOOOOOOOOOOOOOOOOOOOOOOOOOOooooooOO%&*&*&%*&&&",
"&*&&**&*&&&*OOOOOOOOOOOOOOOOOooooooooOOOOOOOo&&**%oooO&**&&&&&&&",
"&*&*&&*&%&&OOOooooooooooOOOooooooooooooOOOOO&**&&*&&ooO*&&&&&&**",
"&&&&&&&&&&Oooo&&&*&*&*OOooooooo**&&&%ooooooOO%&*&&*&&ooO*&***&*&",
"*&&&&&*&&Ooo*&&*&&&OOOooooo&&*&&%***%&oooooooO&**&*&&*ooO****&*&",
"&&&&**&%Ooo&%&%**&Oooooooo&*&&&***&***&oooooooOO**&&**&oo*&**%*%",
"&&&&&**Ooo*&&&%**OOoooo&%&**&&&&**&*&&&&&***&ooOO***&*&oo&&&&&&&",
"&&*&&*&Oo***&%*&*Ooo&*%%***%%*&**&**&*&&&&*&&&oooOO**&*&oo&&&*%%",
"&&&&**Oo%&&**%&%OOo***&&&*&&&&*****%**&***&*&&*&ooOO***%*o&&&&&&",
"*&&&&&O*&&&&&***Ooo&**&&***&**%***&%&&*&%**&&*&&*ooo**&**o&**&**",
"&&***O*&%*&&&%&&oo&&&&&&&&*&&&%**&%&*&*&*&&&&&*&***o&**&*o*&&&&*",
"*&&&&o&&*&&&&&&*oo*&*%*&&&*&&*&%**&&&%&&&*&*&*&&&&&o%&&&*o&&***&",
"&&&*&o%*&&&&&&**o**&&*&***&&**&&&&**&&&&&&*&&*****&*o&&&&o%&&&*&",
"&**&&&&*&&&*&&&*o*&**&&&&*&&&***&&&&**&&&*&*&&&&%**%&&*&%&&***&&",
"&&&&&*&*&&&&&&&&o&&&*&&&**&**&&**&&****&&&&*&*&&&*&**%&&&&&&&&&&",
"*&&%%&%&*&**&&&&o*%****&&&&&&*&*&&****&**&*&&*&*&**&&*&&&&&&&&*&",
"&&&&&&*&&&&*&&&&o*&&&&**&&***&*&&&&***&*&%&***&**&*&&&&&**&&&&&*",
"&&&&%*&&*%&&&&&&o&*&&&&*&*&&&**&&&*&**&*&*&&&&&%**&&&&&*&&&&&&&*",
"*&&&&%&**&&&&**&%&&*&&&&&&%***&&&&*&&*&*%&&&&*&*&&&&*&*&&*&&&**&",
"&*&&*&&*&*&&&&&*&&&&*&*&%&*&**&**&*&&%&***&&*&&*&*&&&&&&*&**&***",
"&&*&**&*&***%&&&&*&&&&&&**&%*%%&**&*&&&*&**&*&&&*&**&*&*&**&*&&*",
"&&**&&*&&**%*&*&%*&&%****&*&&&&&*&%&*&&&&*&&&&%*&%%&***%*&**&*&&",
"&&&**&&&*&&&&&&%*&***&*&&*&&&&%&*&**&*%&&%%*&**&&&*&%&&&&&&*%&&&",
"&*&*%*&&*&*&&***&*&&**&%*%*%&*&*****&*&*&&&&&*&&*&*%&***&*&&&&&*",
"&*&*&&***&&%*%&***&*%*&&*&*&&&*&&&**%&&*&*&&**&*&*&&*&&*&&&*&&%&",
"&*&&***&**&*&*%&**&*&%&%&&*&&&&**&&*&&%**&*&&*&&***&&***&&&*&&&&"
};
