/* XPM */
static char *_2a9d7be0a4445a4ca4fdac537f160c8yDhGi9kb8i54ZzkF[] = {
/* columns rows colors chars-per-pixel */
"64 64 11 1 ",
"  c #4C8319",
". c #58971D",
"X c #568F21",
"o c #5F9E24",
"O c #67AE25",
"+ c #CDAE70",
"@ c #CFB787",
"# c #D1BC91",
"$ c #EFCB83",
"% c #F2D59D",
"& c #F4DBA9",
/* pixels */
"%&&%$&%&&%&&%$&%&%&%%%&%&%%%&%%%&%%&&$&%%&&&%$&&%%%%%%&%%&%%%%&%",
"%%&%%&%%%&%%&&%&&&&&&%$%%&%%&&&%%%&%%&$%%%&%&%%&%%%%%&%&&&%&%&%&",
"%&%&&%&&%&&&&&&%%&%&%%%$&$&%$&$%&%%&%&%%%&&&&%%%&%%&&&%&%%&%%%%%",
"%%%%&%&%$%%&%&&&$%&%&&&%&%%$%%&%%&&&$&&%%%&%%&&&$%&%%%%&&%%%$&%&",
"&&%$&%&%&&&$&&&&&$%&&&&%$&%&&&%%&&&&%&&$%%%%&&&$%%%&&%%%&&&&%%&&",
"&%%&&%%&$%&&&$&&%%%&$&$$%%%%%%%%&%%%&%%&%&%%%%$&%%$XX&$%&%&%$%&&",
"$&&&%$&%%%%%%%&&%&%%%&&&%%%%%&%&%%%$&%%%%$%%&%XXXXXXX%&&%&%%%&%&",
"%&%&&&$$&&&&&&%%&&%&&&$%$$%%%%&%%%%%$&%%&%$XXXXXXXXX%&%&%&%%%$&&",
"&%%%&%$$&$$&%%&&&&&&$%%&$&&&%%$%&%%&&%&%XXXXXXXXXXX%&%%%%%&&&&&&",
"&%&$$&&$&$$%&&&&&ooooooooooo%%&%&&%&%&XXXXXXXXXXX&&%%&&&&&%&%&&&",
"&&&&&&&%&&&&$&&&&%$ooooooooooo%$$$%%XXXX        &&$%&&%&&&%&&%&&",
"&&XXXXXXXXXXXXXXX&&&&oooooooooo%%&XXXX          &&%OOOOOOO%&%&&%",
"$&&XXXXXXXXXXXXXXXX&$%ooooooooo$&XXXX        OOOOOOOOOOOOO&%%&%%",
"%&&&$&XXXXXXXXXXXXXXX&&ooooooooo XX        OOOOOOOOOOOOO%%&%&&&%",
"&&%&%%&XXXXXXXXXXXXXXXXooooooooo         OOOOOOOOOOOOO$%&&&&%&%%",
"&&&%&&&$$%XXXXXXXXXXXXXXooooooooo       OOOOOOOOOOOO&&%%%$%%%$&%",
"%&&%&%$%&$%%      XXXXXXooooooooo     OOOOOOOOOOOO&%$%%%%&&%&%%&",
"&%&%&%%%%&%$$$     XXXXXXoooooooo   OOOOOOOOOOOOOXXXXXXXX%&%&%&&",
"&%$&%&%%&$$%&##       XXXoooooooo  OOOOOOOOOOOOOXXXXXXXXXXXXX&%&",
"%&%&$&OOO&OOOOOOO         oooooo. OOOOOOOOOOOOOXXXXXXXXXXXXXXX&$",
"&&%&%%&%%OOOOOOOOOOOO     ..ooo..OOOOOOOOOOOOXXXXXXXXXXXXXXXX$&&",
"$$%&&&%&$%&&@OOOOOOOOOOOOO ..oo.OOOOOOOOOOOO         %%&&&&%&&%&",
"%&&%&&%&&%&&+#@@#OOOOOOOOOO....OOOOOOOOOOOO       @&%%%%%&%&%%&&",
"$%%%%%%%%&$&###@#@OOOOOOOOOOO.OOOOOOOOOOOO      #@+%&&$%&%%&%&%&",
"$$&$%&%%&%%%#@#+@##.OOOOOOOOO.OOOOOOOOOOOO     @#@#&%%&%$%%&%%&%",
"%%&$%%&%%&$%#@@ooooo.OOOOOOOOOOOOOOOOOOOO    #@@#@@%%%%$&%%&%&&&",
"%%&&&&%$&%%%oooooooo..OOOOOOOOOOOOOOOOOO  XX@##@#@@%%&&%$%%&%&&%",
"$%&&%&%%&%ooooooooooo..OOOOOOOOOOOOOOOO.oooooooooo%%&%&%%&%&%%%%",
"&$&%%%%%oooooooooooooo.OOOOOOOOOOOOOOO..oooooooooooo%%%&&&&&&%%&",
"%%$%%ooooooooooooooo......OOOOOOOOOOO..ooooooooooooooo%%%$%%&$&&",
"%%%%oooooooooooo.....OOOOOOOOOOOOOOOO.oooooooooooooooooo%%&%&%%%",
"%&%oooooooooooo....OOOOOOOOOOOOOOOOOO..oooooooooooooooooo%%%&%&%",
"&%&oooooooooo....OOOOOOOOOOOOOOOOOOOO      ooooooooooooooo&&%&&%",
"%&ooooooooooXXXXOOOOOOOOOOOOOOOOOOOOOOO X       ooooooooooo&%$%%",
"%%ooooooXXXXXXOOOOOOOOOOOOOOOOOOOOOOOOOO XXXXXX   ooooooooo%%&%%",
"&%%%%%%XXXXXXOOOOOOOOOOOOOOOOOOOOOOOOOOOOO XXXXX    oooooooo$&%%",
"&%%%%%XXXXXXOOOOOOOOOOOOOOOO..OOOOOOOOOOOOO  XXXXX    oooooo%%%%",
"%%%&%XXXXXXOOOOOOOOOOOOO.......OOOOOOOOOOOOO  XXXXX       &o%%%%",
"%%$%XXXXXXOOOOOOOOOOOO.....oo....OOOOOOOOOOOO##XXXXX       $&%%%",
"%&%%XXXXXXOOOOOOOOOOO.....oooo....OOOOOOOOOOOO@##$&%XXX    %%%%%",
"%&%XXXXXXOOOOOOOOOOX....oooooo ....OOOOOOOOOOO#@%&%%&%XXXX  %%&&",
"%%%XXXXXOOOOOOOOO#@...ooooooo  ooo.OOOOOOOOOOOO&%%&%%&$%XXXX&%&%",
"&%XXXX&OOOOOOOO&%@@.oooooooo X  ooo.OOOOOOOOOOO&&%&%%&%&%&XXX%&%",
"%%X%&&OOOOOOOO$&&%.oooooooo  X  ooo..OOOOOOOOOOO&&%%&&%&%&%&X$&$",
"%%%%%OOOOOOO%%$&&%oooooooo   X  oooo..OOOOOOOOOO%&&&%&%%&%%%%%%%",
"%%&%%OOOOO&&%$&%&oooooooo#  XXX oooo..@OOOOOOOOO%&&&&%&%&%%%%&$$",
"%%%%OOOOO%%&&$%$%ooooooo@   XXX ooooo.@OOOOOOOOOO&&$&&&$&%%%%%%%",
"&%%%OOOO%%%%%&&&ooooooo@#   XXX ooooo.#%OOOOOOOOO&%&&&%&&$%&&%&&",
"%%&OOOO%$&%%%$%%oooooo%%%  XXXXXooooo%&%&OOOOOOOO&&%%&&%&%&%%%%&",
"&%%OOO%%&%%%%%%&ooooo$&%   XXXXXooooo$%%%&OOOOOOO%%%$%%%&%%%&&&%",
"%%%OO&$&%%%%%%&ooooo%&%&  XXXXXXoooo%%%%%%&OOOOOO&%&&%%%%&$%%%&%",
"%&&O%%%&%%%&%%%oooo&&%%%  XXXXXXoooo&&%%%&%&OOOOO&&$%%&%$%%&&&%%",
"%%%%%&%&%%%%%%ooooo%&%%% XXXXXXoooo&&&&%%%%&OOOOO&%&&$%%%%%%%%%%",
"&%%$$%$%&%&&%%oooo$&&&&%XXXXXX%ooo&&&&%&&%&%%OOOO&&%%&%%%%%%%%&%",
"%%%%%%&%%%%&%%ooo&%%%%&XXXXX&%&oo%%&&&%&%$%&&OOOO%&%%%%%&&%%%%%&",
"%%%%$&%%&$%%%%oo&%&%%%%XXXX%%&&o%%&%&&%&%&%%%%OOO&%%%%%&%%%%%%%&",
"&%%%%$%&&%%%%&o%$%%&%%%XXX$&&&%%%%&%%&%&$%%%%&OOO%%%&%&%%&%%%&&%",
"%&%%&%%&%&%%%%%&%%%%&%XXX%&%&&%&&%&%%$%&&&%%&%OOO&%%%%%%&%&&%&&&",
"%%&%&&%&%&&&$%%%%&%%%%XX&&%$&$$%&&%&%%%&%&&%&%%OO%&&%&%&%&&%&%%&",
"%%&&%%&%%&&$&%&%$&%%$XX&&%&%%%%%&%$%&%%%%&%%%%$OO$$%&&&$&%&&%&%%",
"%%%&&%%%&%%%%%%$&%&&&%&%%&%%%%$%&%&&%&$%%$$&%&&O%%&%$%%%%%%&$%%%",
"%&%&$&%%&%&%%&&&%&%%&&%$&$&$%&%&&&&&%&%&%%%%%&%%&%&$%&&&%&%%%%%&",
"%&%&%%&&&%%$&$%&&&%&$&%%&%&%%%&%%%&&$%%&%&%%&&%&%&%%&%%&%%%&%%$%",
"%&%%&&&%&&%&%&$%&&%&%$%$%%&%%%%&&%%&%%$&&%&%%&%%&&&%%&&&%%%&%%%%"
};
