/* XPM */
static char *_6be4da02aa544529b0963b2dcd0dfd5gPJan6MA0keq93JE[] = {
/* columns rows colors chars-per-pixel */
"64 64 11 1 ",
"  c #4C8319",
". c #58971D",
"X c #568F21",
"o c #5F9E24",
"O c #67AE25",
"+ c #CDAE70",
"@ c #CFB787",
"# c #D1BC91",
"$ c #EFCB83",
"% c #F2D59D",
"& c #F4DBA9",
/* pixels */
"%&&%$&%&&%&&%$&%&%&%%%&%&%%%&%%%&%%&&$&%%&&&%$&&%%%%%%&%%&%%%%&%",
"%%&%%&%%%&%%&&%&&&&&&%$%%&%%&&&%%%&%%&$%%%&%&%%&%%%%%&%&&&%&%&%&",
"%&%&&%&&%&&&&&&%%&%&%%%$&$&%$&$%&%%&%&%%%&&&&%%%&%%&&&%&%%&%%%%%",
"%%%%&%&%$%%&%&&&$%&%&&&%&%%$%%&%%&&&$&&%%%&%%&&&$%&%%%%&&%%%$&%&",
"&&%$&%&%&&&$&&&&&$%&&&&%$&%&&&%%&&&&%&&$%%%%&&&$%%%&&%%%&&&&%%&&",
"&%%&&%%&$%&&&$&&%%%&$&$$%%%%%%%%&%%%&%%&%&%%%%$&%%$%&&$%&%&%$%&&",
"$&&&%$&%%%%%%%&&%&%%%&&&%%%%%&%&%%%$&%%%%$%%&%&%%%%XX%&&%&%%%&%&",
"%&%&&&$$&&&&&&%%&&%&&&$%$$%%%%&%%%%%$&%%&%$$%%XXXXXXX&%&%&%%%$&&",
"&%%%&%$$&$$&%%&&&&&&$%%&$&&&%%$%&%%&&%&%%&XXXXXXXXXX&%%%%%&&&&&&",
"&%&$$&&$&$$%&&&&&&ooooooooooo%&%&&%&%&%XXXXXXXXXXXX%%&&&&&%&%&&&",
"&&&XXXXXXXXXX&&&&%$&ooooooooooo$$$%%%XXXX    XXXXX$%&&%&&&%&&%&&",
"&&&&XXXXXXXXXXXXXX&&&&ooooooooo%%&&XXXX         &&%&%&&%&$%&%&&%",
"$&&&&&XXXXXXXXXXXXXXX%&ooooooooo&$XXXX          %&&OOOOOOO&%%&%%",
"%&&&$&&XXXXXXXXXXXXXXX&ooooooooo  XX        OOOOOOOOOOOOOO&%&&&%",
"&&%&%%&%&&XXXXXXXXXXXXXXooooooooo         OOOOOOOOOOOOOO&&&&%&%%",
"&&&%&&&$$%&&%     XXXXXXooooooooo        OOOOOOOOOOOO&%%%$%%%$&%",
"%&&%&%$%&$%%$%     XXXXXXoooooooo      OOOOOOOOOOOO%$%%%%&&%&%%&",
"&%&%&%%%%&%$$$#     XXXXXoooooooo    OOOOOOOOOOOOOXX$&&&$%&%&%&&",
"&%$&%&%OOO$OOOOOO      XXXooooooo  OOOOOOOOOOOOOOXXXXXXXXX%%%&%&",
"%&%&$&%$%OOOOOOOOOOOO     oooooo. OOOOOOOOOOOOOOXXXXXXXXXXXXX&&$",
"&&%&%%&%%%&%@OOOOOOOOO     ..ooo.OOOOOOOOOOOOOXXXXXXXXXXXXXXXX&&",
"$$%&&&%&$%&&@@@##OOOOOOOOOO...o.OOOOOOOOOOOOO        %XXXXXXX&%&",
"%&&%&&%&&%&&+#@@#@OOOOOOOOOO...OOOOOOOOOOOO        &%%%%%&%&%%&&",
"$%%%%%%%%&$&###@#@#.OOOOOOOOO.OOOOOOOOOOOO      #@+%&&$%&%%&%&%&",
"$$&$%&%%&%%%#@#+oooo.OOOOOOOOOOOOOOOOOOOOO     @#@#&%%&%$%%&%%&%",
"%%&$%%&%%&$%#ooooooo..OOOOOOOOOOOOOOOOOOO    #@@#@@%%%%$&%%&%&&&",
"%%&&&&%$&%ooooooooooo..OOOOOOOOOOOOOOOOO  XX@##@#@@%%&&%$%%&%&&%",
"$%&&%&%%oooooooooooooo.OOOOOOOOOOOOOOOO.oooooooooo%%&%&%%&%&%%%%",
"&$&%%oooooooooooooooo.....OOOOOOOOOOOO..ooooooooooo%%%%&&&&&&%%&",
"%%$%oooooooooooo......OOOOOOOOOOOOOOO..oooooooooooooo%%%%$%%&$&&",
"%%%oooooooooooo.....OOOOOOOOOOOOOOOOO.ooooooooooooooooo&%%&%&%%%",
"%&%oooooooooo....OOOOOOOOOOOOOOOOOOOO..ooooooooooooooooo&%%%&%&%",
"&%ooooooooooXXXXOOOOOOOOOOOOOOOOOOOOOO     oooooooooooooo%&&%&&%",
"%&%oooooXXXXXXOOOOOOOOOOOOOOOOOOOOOOOOO X       oooooooooo%&%$%%",
"%%%$&%%XXXXXXOOOOOOOOOOOOOOOOOOOOOOOOOOO XXXXXX   ooooooooo%%&%%",
"&%%%%%XXXXXXOOOOOOOOOOOOOOOOOOOOOOOOOOOOOO XXXXX    ooooooo%$&%%",
"&%%%%XXXXXXOOOOOOOOOOOOO.......OOOOOOOOOOOO  XXXXX   ooooooo%%%%",
"%%%&XXXXXXOOOOOOOOOOOO.....o....OOOOOOOOOOOO  XXXXX      &oo%%%%",
"%%$%XXXXXXOOOOOOOOOOO.....ooo....OOOOOOOOOOOO#XXXXXX      %$&%%%",
"%&%XXXXXXOOOOOOOOOOX....oooooo....OOOOOOOOOOO@@##$&%XX     %%%%%",
"%&%XXXXXOOOOOOOOO#@...ooooooo  oo..OOOOOOOOOOO#@%&%%&%XXX  %%%&&",
"%%XX%%OOOOOOOO%%@#..oooooooo X ooo.OOOOOOOOOOO@&%%&%%&$%XXXX&%&%",
"&%%%%OOOOOOOO%%&%@ooooooooo  X  ooo.OOOOOOOOOOO&&%&%%&%&%XXX&%&%",
"%%%%&OOOOOO%$%$&&ooooooooo  XX  ooo..OOOOOOOOOO&&&%%&&%&%&%X&$&$",
"%%%%OOOOO&&%%%$&&oooooooo   XX  oooo..OOOOOOOOO&%&&&%&%%&%%%%%%%",
"%%&%OOOO%&&&%$&%ooooooo+#   XXX oooo..@OOOOOOOOO%&&&&%&%&%%%%&$$",
"%%%OOOO&$%%&&$%$oooooo@@@  XXXX oooo.#@OOOOOOOOO%&&$&&&$&%%%%%%%",
"&%%OOO%&%%%%%&&&ooooo&%@   XXXX oooo@@#%OOOOOOOO&&%&&&%&&$%&&%&&",
"%%&OO%&%$&%%%$%ooooo%%%%  XXXXXXoooo&%&%&OOOOOOO&&&%%&&%&%&%%%%&",
"&%%O%&%%&%%%%%%oooo%&$&   XXXXX oooo%$%%%&OOOOOO%%%%$%%%&%%%&&&%",
"%%%&%&$&%%%%%%ooooo%%&%  XXXXXXoooo&%%%%%%&OOOOO&&%&&%%%%&$%%%&%",
"%&&%%%%&%%%&%%oooo%&&%% XXXXXX&ooo%%&&%%%&%OOOOO$&&$%%&%$%%&&&%%",
"%%%%%&%&%%%%%%ooo%%%&%%XXXXXX%ooo%%&&&&%%%%&OOOO%&%&&$%%%%%%%%%%",
"&%%$$%$%&%&&%ooo$&$&&&XXXXX%%&oo%%&&&&%&&%&%OOOO%&&%%&%%%%%%%%&%",
"%%%%%%&%%%%&%oo%%&%%%%XXXX&&&%o%%%%&&&%&%$%&&OOO&%&%%%%%&&%%%%%&",
"%%%%$&%%&$%%%%%%&%&%%%XXX&%%%&&%%%&%&&%&%&%%%OOO&&%%%%%&%%%%%%%&",
"&%%%%$%&&%%%%&&%$%%&%XXX%%$&&&%%%%&%%&%&$%%%%OOO%%%%&%&%%&%%%&&%",
"%&%%&%%&%&%%%%%&%%%%&XX%$%&%&&%&&%&%%$%&&&%%&%OO%&%%%%%%&%&&%&&&",
"%%&%&&%&%&&&$%%%%&%%%%%%&&%$&$$%&&%&%%%&%&&%&%OO&%&&%&%&%&&%&%%&",
"%%&&%%&%%&&$&%&%$&%%$&&&&%&%%%%%&%$%&%%%%&%%%%O&%$$%&&&$&%&&%&%%",
"%%%&&%%%&%%%%%%$&%&&&%&%%&%%%%$%&%&&%&$%%$$&%&&%%%&%$%%%%%%&$%%%",
"%&%&$&%%&%&%%&&&%&%%&&%$&$&$%&%&&&&&%&%&%%%%%&%%&%&$%&&&%&%%%%%&",
"%&%&%%&&&%%$&$%&&&%&$&%%&%&%%%&%%%&&$%%&%&%%&&%&%&%%&%%&%%%&%%$%",
"%&%%&&&%&&%&%&$%&&%&%$%$%%&%%%%&&%%&%%$&&%&%%&%%&&&%%&&&%%%&%%%%"
};
