/* XPM */
static char *ce967a7ed48141c7c2a7af0503079643w4tFFnhzdg1t6ffj[] = {
/* columns rows colors chars-per-pixel */
"64 64 3 1 ",
"  c #807B82",
". c #847E87",
"X c #88828A",
/* pixels */
"  . XX. .XX.. XXXX.  ..   XX... XXXX.   .. XXXXX.. . .XX..      ",
"X. XXX.. XXX .XXXXX. ... .XXXX. XX.. XX.  .XXXXXX..  .XX.  ... X",
"X. XXX.. .XX    .XX. .... .XXX. . . .XXX.. ...XXX. ..  . ..   XX",
"XX ..    .. .XXX  .. . ... ... XX.  ..XXXX. . ... XXX.. ....  XX",
"XX.  ... . .XXXX.. .  .  ..   .XXXX. ..XXX.. .   .XXXX. ... .. .",
"XX ..XXX. .XXXX...  .XX..  XX. .XXX.     .. .XX. ..XXX.    .... ",
".. .XXXX.. XX..   ..XXXXX. XXX. .XX .XX.. ..XXX. . ... XX....   ",
"  ..XX.....  . ...  XXXXX. .XXX. . ..XXXX. .XXX.  .   .XXXX. XX.",
".   ....   .. XXXXXXX.XX.  ..XX .  ..XXXXX. .XX  ..XXXXXXXX XXX.",
" XXX ..XX..  .XXXXXXX .. XX .XX .    .XXXX. .. .. .XXXXXXX. XX. ",
"XXXX.  XXXX.. ...XXX.. ..XX. .. .XX.. .XX. .. XXX. .XXXX.. ... .",
"XXX.. ..XXX...       .. XXXX.   .XXX.. .. .  .XXX.. .XXX.  .. .X",
"XXX. .       .  XXXX.  .XXXX. .. .XXXXX  XX. XXXX.   ... ..  ..X",
"XX. .. XX....   XXXXX.. ..XX .XX. .XXXX .XX. XXX. XX.   .XX..  .",
".. .. .XXXXX....  .XXXX.  .. .XXX.   ...     ... .XX.. ..XX. .. ",
" . .. ..XXXXXXXX.. .XXX.      .XX XX. .. XX..   .XXX. ..XXX ....",
". ...    ..XXXXX...   . .XXXX. .. XXX.  XXXXX.. .XXX. .XXX .XXX.",
". .. XX..  ....... XX.  .XXXX.. .. XXX .XXXXXX.. .XXX .XX .XXXXX",
". . XXXX. .  .... XXXXX. .XXX. .  .XXX .XXXXXXX. ..XX.    .XXXXX",
".. .XXXX .XX.    .XXXXX. .XXX. XX. XX. .XXXXXXX.  ... XXX. .XXX.",
". .XXX.. .XXX. .XXXXXX..  ... .XXX. .    .XXXXX.     XXXXX. ....",
"  .XX.    .XX. .XXXXXX. .. . XXXXX . .... ..XX. XX. .XXXXX.. .  ",
". ..  XXX. ...  .XX..  .XX.  XXXX. . .....   . .XXX .XX.      XX",
".. ..XXXXX. . ..     .XXXX.. .XX. .XX ... ... ..XXX.   XX.. XXXX",
"  .  XXXXX.. .XX.. XXXXXXX. . XX .XXX.   .XXX. ..XX. XXXX. .XXX.",
".. ..        .XX.. XXXXXX.. . . .XXXX. ...XXXX. ...  XXX... ..  ",
"X. .XXXXX.... ... .XXXXXX. ... .XXXXX.    .XXX.    . XXXX.    .X",
"X. .XXXXX..        XXXX.. ..... XXXX. ..XX ... XXXX.. .XX ..XXXX",
".   XXXX.    ..XX..   .. ...   .  .. ..XXXX   .XXXXX.    . .XXXX",
" .. .... .... .XXXXX.. ..   XX....  . .XXXX .. .XXXX. .XXXX ... ",
".XX. .  XXXXX. .XXXXX.. XXXXXX. .XX... ..XX .. ..XXX  XXXXXX   .",
"XXXX.  .XXXXX..   .XX. .XXXXXX. XXXX...    .XXX ....  XXXXXX.. .",
"XXXX. ..XXXX...        .XXXXX. .XXXX.  ... .XXX.    .. ..  ... .",
"     . ..XX..  .XXX.... XXXX. ..XXX. ..XX.  ... .. .XX.  ..     ",
". .XXX.  .   . .XXXX..       .  XX. . .XX .. . XX. .XX.  ...XXXX",
". .XXX... .XX.. ..XX. .XXX.. .XX   ... . .... .XX..    . ..XXXXX",
" ...XX..  .XXX..     ..XXX.. .XX... ..  . ..  ...  ...... .XXX..",
"..       .XXXX.. XXX.     . ..XXXX. . .XX.  .    .. .XX... .... ",
"XXX.. ... XXXX. .XXXXXXX.. . ..XXX . . XXXX... ..... XX.. .    .",
"XXX. ..... ... . .XXXXXX. ...XX   .XXX. .XXXX. ..XX. .... .. ...",
".... ..XXX.   XX.         ..XXXX. XXXX.   .XX. ..XX..     XX.  .",
"      .XXX... XXXXXXXX .XX .XXXXX XXX. ...  ..  ...  .... XXX.. ",
" .XX.. .....  .XXXXXXX.XXX .XXXXX. .. .XXX..  ..   . .XX.. XXXX.",
" .XXXX.  XX . .XXXX. .XXXX. ....  .  .XXXX... ..... ..XXX. .XXX.",
"  .XXX. XXX.. .XX.. . XXXX .    .XX. .XXX... ..XXX.. ..XXXX ..  ",
"X.     .XXXX.. .. XXX.  . .XXX. .XXX.       . .XXXX.. ..XXX.  XX",
"X..  .. .XXX...  XXXX. . . XXXX. .XX.  XX.... .XXXXX..  .XX . XX",
"X  .XXX. ....   .XXXX. XX. .XXX.  .. . XXXX. . XXXXX.. .  . .. X",
" . .XXX..    ... .XX  .XX   .   ..  ... XXX .. .XX... XX.. .XX. ",
"XX. .XXX. . ..XX.   .. . ... .XX.  . ...   .. . ....  XX. .XXX X",
"XX.. .XX .XX XXXX .XX.  .XXXX.XX ..  ... ... ...     . .  XXX .X",
"X..  .  .XXX XXXX XXX. .XXXXX . XXX.. . XX. XX. .... .. ..XXX XX",
".  ..  .XXX. .XX. XX. . XXXX.. .XXX    XXXX XX .XXX.. ... .   XX",
" ..XXX. XX. .    ... XX. XX.    .. ... XXXX .. .XXXX.. . XX. .  ",
". .XXX.    ..XX.. . .XXX.  XX... . XXX. ....   ...XX...  XX .XXX",
".. XXX .XX. .XXXX.    XXX .XXXX.. .XXX...   ...       ..   ..XXX",
"..    .XXX.. .XXXX .XX XX ..XXX.. ..      XX  .. XXX..  ..  ....",
". XXX. XX....  .XX .XX.     ..    . XXXX .XX    .XXXXX XX..     ",
" .XXXX.    ....     .  .XXX.  ...  .XXXX .. XXX  ..XXX XX. XXXX.",
" .. XX. XX.  . XXXX. ..XXXXX. .  . ..XX. . .XXXX.  ...... .XXXX.",
"   .   XXX... .XXXXX. .XXXXXX  .XX  ..    ..XXXX.      ... .    ",
" XX... XXX .. ..XXXXXX .XXXXX .XXX..  XXX.  .XX. .XX... ..  ....",
".XXX  .XX XX..  XXXXXX. XX.  ..XXXX.. XXXX..    ..XX..    ..XX. ",
"..XXXX . XXX   .   ..  .. XX.  .XXXX. ..XX. ....  ... XX. ..XX. "
};
